<svg xmlns="http://www.w3.org/2000/svg" width="470" height="400" viewBox="0 0 470 400">
<rect width="100%" height="100%" fill="#f8f7f2"/>

<text x="28" y="42" font-family="Arial, sans-serif" font-size="15" font-weight="700" fill="#202020">Piece A</text>
<rect x="28" y="50" width="18" height="18" fill="#df5b57" stroke="none"/>
<rect x="28" y="68" width="18" height="18" fill="#df5b57" stroke="none"/>
<rect x="28" y="86" width="18" height="18" fill="#df5b57" stroke="none"/>
<rect x="46" y="50" width="18" height="18" fill="#df5b57" stroke="none"/>
<rect x="46" y="68" width="18" height="18" fill="#df5b57" stroke="none"/>
<rect x="46" y="86" width="18" height="18" fill="#df5b57" stroke="none"/>
<rect x="64" y="50" width="18" height="18" fill="#df5b57" stroke="none"/>
<rect x="64" y="68" width="18" height="18" fill="#df5b57" stroke="none"/>
<rect x="64" y="86" width="18" height="18" fill="#df5b57" stroke="none"/>
<rect x="64" y="104" width="18" height="18" fill="#df5b57" stroke="none"/>
<rect x="64" y="122" width="18" height="18" fill="#df5b57" stroke="none"/>
<rect x="82" y="50" width="18" height="18" fill="#df5b57" stroke="none"/>
<rect x="82" y="68" width="18" height="18" fill="#df5b57" stroke="none"/>
<rect x="82" y="86" width="18" height="18" fill="#df5b57" stroke="none"/>
<rect x="82" y="104" width="18" height="18" fill="#df5b57" stroke="none"/>
<rect x="82" y="122" width="18" height="18" fill="#df5b57" stroke="none"/>
<line x1="28" y1="50" x2="28" y2="68" stroke="#1f1f1f" stroke-width="2.3" stroke-linecap="square"/>
<line x1="28" y1="50" x2="46" y2="50" stroke="#1f1f1f" stroke-width="2.3" stroke-linecap="square"/>
<line x1="28" y1="68" x2="28" y2="86" stroke="#1f1f1f" stroke-width="2.3" stroke-linecap="square"/>
<line x1="28" y1="86" x2="28" y2="104" stroke="#1f1f1f" stroke-width="2.3" stroke-linecap="square"/>
<line x1="28" y1="104" x2="46" y2="104" stroke="#1f1f1f" stroke-width="2.3" stroke-linecap="square"/>
<line x1="46" y1="50" x2="64" y2="50" stroke="#1f1f1f" stroke-width="2.3" stroke-linecap="square"/>
<line x1="46" y1="104" x2="64" y2="104" stroke="#1f1f1f" stroke-width="2.3" stroke-linecap="square"/>
<line x1="64" y1="50" x2="82" y2="50" stroke="#1f1f1f" stroke-width="2.3" stroke-linecap="square"/>
<line x1="64" y1="104" x2="64" y2="122" stroke="#1f1f1f" stroke-width="2.3" stroke-linecap="square"/>
<line x1="64" y1="122" x2="64" y2="140" stroke="#1f1f1f" stroke-width="2.3" stroke-linecap="square"/>
<line x1="64" y1="140" x2="82" y2="140" stroke="#1f1f1f" stroke-width="2.3" stroke-linecap="square"/>
<line x1="100" y1="50" x2="100" y2="68" stroke="#1f1f1f" stroke-width="2.3" stroke-linecap="square"/>
<line x1="82" y1="50" x2="100" y2="50" stroke="#1f1f1f" stroke-width="2.3" stroke-linecap="square"/>
<line x1="100" y1="68" x2="100" y2="86" stroke="#1f1f1f" stroke-width="2.3" stroke-linecap="square"/>
<line x1="100" y1="86" x2="100" y2="104" stroke="#1f1f1f" stroke-width="2.3" stroke-linecap="square"/>
<line x1="100" y1="104" x2="100" y2="122" stroke="#1f1f1f" stroke-width="2.3" stroke-linecap="square"/>
<line x1="100" y1="122" x2="100" y2="140" stroke="#1f1f1f" stroke-width="2.3" stroke-linecap="square"/>
<line x1="82" y1="140" x2="100" y2="140" stroke="#1f1f1f" stroke-width="2.3" stroke-linecap="square"/>
<line x1="28" y1="50" x2="28" y2="140" stroke="#817c70" stroke-width="1.6"/>
<line x1="46" y1="50" x2="46" y2="140" stroke="#d7d2c6" stroke-width="0.8"/>
<line x1="64" y1="50" x2="64" y2="140" stroke="#817c70" stroke-width="1.6"/>
<line x1="82" y1="50" x2="82" y2="140" stroke="#d7d2c6" stroke-width="0.8"/>
<line x1="100" y1="50" x2="100" y2="140" stroke="#817c70" stroke-width="1.6"/>
<line x1="28" y1="50" x2="100" y2="50" stroke="#817c70" stroke-width="1.6"/>
<line x1="28" y1="68" x2="100" y2="68" stroke="#d7d2c6" stroke-width="0.8"/>
<line x1="28" y1="86" x2="100" y2="86" stroke="#817c70" stroke-width="1.6"/>
<line x1="28" y1="104" x2="100" y2="104" stroke="#d7d2c6" stroke-width="0.8"/>
<line x1="28" y1="122" x2="100" y2="122" stroke="#817c70" stroke-width="1.6"/>
<line x1="28" y1="140" x2="100" y2="140" stroke="#d7d2c6" stroke-width="0.8"/>
<text x="142" y="42" font-family="Arial, sans-serif" font-size="15" font-weight="700" fill="#202020">Piece B</text>
<rect x="142" y="86" width="18" height="18" fill="#4f8bd6" stroke="none"/>
<rect x="142" y="104" width="18" height="18" fill="#4f8bd6" stroke="none"/>
<rect x="142" y="122" width="18" height="18" fill="#4f8bd6" stroke="none"/>
<rect x="160" y="86" width="18" height="18" fill="#4f8bd6" stroke="none"/>
<rect x="160" y="104" width="18" height="18" fill="#4f8bd6" stroke="none"/>
<rect x="160" y="122" width="18" height="18" fill="#4f8bd6" stroke="none"/>
<rect x="178" y="50" width="18" height="18" fill="#4f8bd6" stroke="none"/>
<rect x="178" y="68" width="18" height="18" fill="#4f8bd6" stroke="none"/>
<rect x="178" y="86" width="18" height="18" fill="#4f8bd6" stroke="none"/>
<rect x="178" y="104" width="18" height="18" fill="#4f8bd6" stroke="none"/>
<rect x="196" y="50" width="18" height="18" fill="#4f8bd6" stroke="none"/>
<rect x="196" y="68" width="18" height="18" fill="#4f8bd6" stroke="none"/>
<rect x="196" y="86" width="18" height="18" fill="#4f8bd6" stroke="none"/>
<rect x="196" y="104" width="18" height="18" fill="#4f8bd6" stroke="none"/>
<line x1="142" y1="86" x2="142" y2="104" stroke="#1f1f1f" stroke-width="2.3" stroke-linecap="square"/>
<line x1="142" y1="86" x2="160" y2="86" stroke="#1f1f1f" stroke-width="2.3" stroke-linecap="square"/>
<line x1="142" y1="104" x2="142" y2="122" stroke="#1f1f1f" stroke-width="2.3" stroke-linecap="square"/>
<line x1="142" y1="122" x2="142" y2="140" stroke="#1f1f1f" stroke-width="2.3" stroke-linecap="square"/>
<line x1="142" y1="140" x2="160" y2="140" stroke="#1f1f1f" stroke-width="2.3" stroke-linecap="square"/>
<line x1="160" y1="86" x2="178" y2="86" stroke="#1f1f1f" stroke-width="2.3" stroke-linecap="square"/>
<line x1="178" y1="122" x2="178" y2="140" stroke="#1f1f1f" stroke-width="2.3" stroke-linecap="square"/>
<line x1="160" y1="140" x2="178" y2="140" stroke="#1f1f1f" stroke-width="2.3" stroke-linecap="square"/>
<line x1="178" y1="50" x2="178" y2="68" stroke="#1f1f1f" stroke-width="2.3" stroke-linecap="square"/>
<line x1="178" y1="50" x2="196" y2="50" stroke="#1f1f1f" stroke-width="2.3" stroke-linecap="square"/>
<line x1="178" y1="68" x2="178" y2="86" stroke="#1f1f1f" stroke-width="2.3" stroke-linecap="square"/>
<line x1="178" y1="122" x2="196" y2="122" stroke="#1f1f1f" stroke-width="2.3" stroke-linecap="square"/>
<line x1="214" y1="50" x2="214" y2="68" stroke="#1f1f1f" stroke-width="2.3" stroke-linecap="square"/>
<line x1="196" y1="50" x2="214" y2="50" stroke="#1f1f1f" stroke-width="2.3" stroke-linecap="square"/>
<line x1="214" y1="68" x2="214" y2="86" stroke="#1f1f1f" stroke-width="2.3" stroke-linecap="square"/>
<line x1="214" y1="86" x2="214" y2="104" stroke="#1f1f1f" stroke-width="2.3" stroke-linecap="square"/>
<line x1="214" y1="104" x2="214" y2="122" stroke="#1f1f1f" stroke-width="2.3" stroke-linecap="square"/>
<line x1="196" y1="122" x2="214" y2="122" stroke="#1f1f1f" stroke-width="2.3" stroke-linecap="square"/>
<line x1="142" y1="50" x2="142" y2="140" stroke="#817c70" stroke-width="1.6"/>
<line x1="160" y1="50" x2="160" y2="140" stroke="#d7d2c6" stroke-width="0.8"/>
<line x1="178" y1="50" x2="178" y2="140" stroke="#817c70" stroke-width="1.6"/>
<line x1="196" y1="50" x2="196" y2="140" stroke="#d7d2c6" stroke-width="0.8"/>
<line x1="214" y1="50" x2="214" y2="140" stroke="#817c70" stroke-width="1.6"/>
<line x1="142" y1="50" x2="214" y2="50" stroke="#817c70" stroke-width="1.6"/>
<line x1="142" y1="68" x2="214" y2="68" stroke="#d7d2c6" stroke-width="0.8"/>
<line x1="142" y1="86" x2="214" y2="86" stroke="#817c70" stroke-width="1.6"/>
<line x1="142" y1="104" x2="214" y2="104" stroke="#d7d2c6" stroke-width="0.8"/>
<line x1="142" y1="122" x2="214" y2="122" stroke="#817c70" stroke-width="1.6"/>
<line x1="142" y1="140" x2="214" y2="140" stroke="#d7d2c6" stroke-width="0.8"/>
<text x="256" y="42" font-family="Arial, sans-serif" font-size="15" font-weight="700" fill="#202020">Piece C</text>
<rect x="256" y="50" width="18" height="18" fill="#55a868" stroke="none"/>
<rect x="256" y="68" width="18" height="18" fill="#55a868" stroke="none"/>
<rect x="256" y="86" width="18" height="18" fill="#55a868" stroke="none"/>
<rect x="274" y="50" width="18" height="18" fill="#55a868" stroke="none"/>
<rect x="274" y="68" width="18" height="18" fill="#55a868" stroke="none"/>
<rect x="274" y="86" width="18" height="18" fill="#55a868" stroke="none"/>
<rect x="292" y="50" width="18" height="18" fill="#55a868" stroke="none"/>
<rect x="292" y="68" width="18" height="18" fill="#55a868" stroke="none"/>
<rect x="292" y="86" width="18" height="18" fill="#55a868" stroke="none"/>
<rect x="292" y="104" width="18" height="18" fill="#55a868" stroke="none"/>
<rect x="292" y="122" width="18" height="18" fill="#55a868" stroke="none"/>
<rect x="310" y="50" width="18" height="18" fill="#55a868" stroke="none"/>
<rect x="310" y="68" width="18" height="18" fill="#55a868" stroke="none"/>
<rect x="310" y="86" width="18" height="18" fill="#55a868" stroke="none"/>
<rect x="310" y="104" width="18" height="18" fill="#55a868" stroke="none"/>
<rect x="310" y="122" width="18" height="18" fill="#55a868" stroke="none"/>
<line x1="256" y1="50" x2="256" y2="68" stroke="#1f1f1f" stroke-width="2.3" stroke-linecap="square"/>
<line x1="256" y1="50" x2="274" y2="50" stroke="#1f1f1f" stroke-width="2.3" stroke-linecap="square"/>
<line x1="256" y1="68" x2="256" y2="86" stroke="#1f1f1f" stroke-width="2.3" stroke-linecap="square"/>
<line x1="256" y1="86" x2="256" y2="104" stroke="#1f1f1f" stroke-width="2.3" stroke-linecap="square"/>
<line x1="256" y1="104" x2="274" y2="104" stroke="#1f1f1f" stroke-width="2.3" stroke-linecap="square"/>
<line x1="274" y1="50" x2="292" y2="50" stroke="#1f1f1f" stroke-width="2.3" stroke-linecap="square"/>
<line x1="274" y1="104" x2="292" y2="104" stroke="#1f1f1f" stroke-width="2.3" stroke-linecap="square"/>
<line x1="292" y1="50" x2="310" y2="50" stroke="#1f1f1f" stroke-width="2.3" stroke-linecap="square"/>
<line x1="292" y1="104" x2="292" y2="122" stroke="#1f1f1f" stroke-width="2.3" stroke-linecap="square"/>
<line x1="292" y1="122" x2="292" y2="140" stroke="#1f1f1f" stroke-width="2.3" stroke-linecap="square"/>
<line x1="292" y1="140" x2="310" y2="140" stroke="#1f1f1f" stroke-width="2.3" stroke-linecap="square"/>
<line x1="328" y1="50" x2="328" y2="68" stroke="#1f1f1f" stroke-width="2.3" stroke-linecap="square"/>
<line x1="310" y1="50" x2="328" y2="50" stroke="#1f1f1f" stroke-width="2.3" stroke-linecap="square"/>
<line x1="328" y1="68" x2="328" y2="86" stroke="#1f1f1f" stroke-width="2.3" stroke-linecap="square"/>
<line x1="328" y1="86" x2="328" y2="104" stroke="#1f1f1f" stroke-width="2.3" stroke-linecap="square"/>
<line x1="328" y1="104" x2="328" y2="122" stroke="#1f1f1f" stroke-width="2.3" stroke-linecap="square"/>
<line x1="328" y1="122" x2="328" y2="140" stroke="#1f1f1f" stroke-width="2.3" stroke-linecap="square"/>
<line x1="310" y1="140" x2="328" y2="140" stroke="#1f1f1f" stroke-width="2.3" stroke-linecap="square"/>
<line x1="256" y1="50" x2="256" y2="140" stroke="#817c70" stroke-width="1.6"/>
<line x1="274" y1="50" x2="274" y2="140" stroke="#d7d2c6" stroke-width="0.8"/>
<line x1="292" y1="50" x2="292" y2="140" stroke="#817c70" stroke-width="1.6"/>
<line x1="310" y1="50" x2="310" y2="140" stroke="#d7d2c6" stroke-width="0.8"/>
<line x1="328" y1="50" x2="328" y2="140" stroke="#817c70" stroke-width="1.6"/>
<line x1="256" y1="50" x2="328" y2="50" stroke="#817c70" stroke-width="1.6"/>
<line x1="256" y1="68" x2="328" y2="68" stroke="#d7d2c6" stroke-width="0.8"/>
<line x1="256" y1="86" x2="328" y2="86" stroke="#817c70" stroke-width="1.6"/>
<line x1="256" y1="104" x2="328" y2="104" stroke="#d7d2c6" stroke-width="0.8"/>
<line x1="256" y1="122" x2="328" y2="122" stroke="#817c70" stroke-width="1.6"/>
<line x1="256" y1="140" x2="328" y2="140" stroke="#d7d2c6" stroke-width="0.8"/>
<text x="370" y="42" font-family="Arial, sans-serif" font-size="15" font-weight="700" fill="#202020">Piece D</text>
<rect x="370" y="140" width="18" height="18" fill="#c77cce" stroke="none"/>
<rect x="370" y="158" width="18" height="18" fill="#c77cce" stroke="none"/>
<rect x="388" y="50" width="18" height="18" fill="#c77cce" stroke="none"/>
<rect x="388" y="68" width="18" height="18" fill="#c77cce" stroke="none"/>
<rect x="388" y="86" width="18" height="18" fill="#c77cce" stroke="none"/>
<rect x="388" y="104" width="18" height="18" fill="#c77cce" stroke="none"/>
<rect x="388" y="122" width="18" height="18" fill="#c77cce" stroke="none"/>
<rect x="388" y="140" width="18" height="18" fill="#c77cce" stroke="none"/>
<rect x="388" y="158" width="18" height="18" fill="#c77cce" stroke="none"/>
<rect x="406" y="50" width="18" height="18" fill="#c77cce" stroke="none"/>
<rect x="406" y="68" width="18" height="18" fill="#c77cce" stroke="none"/>
<rect x="406" y="86" width="18" height="18" fill="#c77cce" stroke="none"/>
<rect x="406" y="104" width="18" height="18" fill="#c77cce" stroke="none"/>
<rect x="406" y="122" width="18" height="18" fill="#c77cce" stroke="none"/>
<rect x="406" y="140" width="18" height="18" fill="#c77cce" stroke="none"/>
<rect x="406" y="158" width="18" height="18" fill="#c77cce" stroke="none"/>
<line x1="370" y1="140" x2="370" y2="158" stroke="#1f1f1f" stroke-width="2.3" stroke-linecap="square"/>
<line x1="370" y1="140" x2="388" y2="140" stroke="#1f1f1f" stroke-width="2.3" stroke-linecap="square"/>
<line x1="370" y1="158" x2="370" y2="176" stroke="#1f1f1f" stroke-width="2.3" stroke-linecap="square"/>
<line x1="370" y1="176" x2="388" y2="176" stroke="#1f1f1f" stroke-width="2.3" stroke-linecap="square"/>
<line x1="388" y1="50" x2="388" y2="68" stroke="#1f1f1f" stroke-width="2.3" stroke-linecap="square"/>
<line x1="388" y1="50" x2="406" y2="50" stroke="#1f1f1f" stroke-width="2.3" stroke-linecap="square"/>
<line x1="388" y1="68" x2="388" y2="86" stroke="#1f1f1f" stroke-width="2.3" stroke-linecap="square"/>
<line x1="388" y1="86" x2="388" y2="104" stroke="#1f1f1f" stroke-width="2.3" stroke-linecap="square"/>
<line x1="388" y1="104" x2="388" y2="122" stroke="#1f1f1f" stroke-width="2.3" stroke-linecap="square"/>
<line x1="388" y1="122" x2="388" y2="140" stroke="#1f1f1f" stroke-width="2.3" stroke-linecap="square"/>
<line x1="388" y1="176" x2="406" y2="176" stroke="#1f1f1f" stroke-width="2.3" stroke-linecap="square"/>
<line x1="424" y1="50" x2="424" y2="68" stroke="#1f1f1f" stroke-width="2.3" stroke-linecap="square"/>
<line x1="406" y1="50" x2="424" y2="50" stroke="#1f1f1f" stroke-width="2.3" stroke-linecap="square"/>
<line x1="424" y1="68" x2="424" y2="86" stroke="#1f1f1f" stroke-width="2.3" stroke-linecap="square"/>
<line x1="424" y1="86" x2="424" y2="104" stroke="#1f1f1f" stroke-width="2.3" stroke-linecap="square"/>
<line x1="424" y1="104" x2="424" y2="122" stroke="#1f1f1f" stroke-width="2.3" stroke-linecap="square"/>
<line x1="424" y1="122" x2="424" y2="140" stroke="#1f1f1f" stroke-width="2.3" stroke-linecap="square"/>
<line x1="424" y1="140" x2="424" y2="158" stroke="#1f1f1f" stroke-width="2.3" stroke-linecap="square"/>
<line x1="424" y1="158" x2="424" y2="176" stroke="#1f1f1f" stroke-width="2.3" stroke-linecap="square"/>
<line x1="406" y1="176" x2="424" y2="176" stroke="#1f1f1f" stroke-width="2.3" stroke-linecap="square"/>
<line x1="370" y1="50" x2="370" y2="176" stroke="#817c70" stroke-width="1.6"/>
<line x1="388" y1="50" x2="388" y2="176" stroke="#d7d2c6" stroke-width="0.8"/>
<line x1="406" y1="50" x2="406" y2="176" stroke="#817c70" stroke-width="1.6"/>
<line x1="424" y1="50" x2="424" y2="176" stroke="#d7d2c6" stroke-width="0.8"/>
<line x1="370" y1="50" x2="424" y2="50" stroke="#817c70" stroke-width="1.6"/>
<line x1="370" y1="68" x2="424" y2="68" stroke="#d7d2c6" stroke-width="0.8"/>
<line x1="370" y1="86" x2="424" y2="86" stroke="#817c70" stroke-width="1.6"/>
<line x1="370" y1="104" x2="424" y2="104" stroke="#d7d2c6" stroke-width="0.8"/>
<line x1="370" y1="122" x2="424" y2="122" stroke="#817c70" stroke-width="1.6"/>
<line x1="370" y1="140" x2="424" y2="140" stroke="#d7d2c6" stroke-width="0.8"/>
<line x1="370" y1="158" x2="424" y2="158" stroke="#817c70" stroke-width="1.6"/>
<line x1="370" y1="176" x2="424" y2="176" stroke="#d7d2c6" stroke-width="0.8"/>
<text x="28" y="238" font-family="Arial, sans-serif" font-size="15" font-weight="700" fill="#202020">Piece E</text>
<rect x="28" y="246" width="18" height="18" fill="#d79542" stroke="none"/>
<rect x="28" y="264" width="18" height="18" fill="#d79542" stroke="none"/>
<rect x="28" y="282" width="18" height="18" fill="#d79542" stroke="none"/>
<rect x="28" y="300" width="18" height="18" fill="#d79542" stroke="none"/>
<rect x="28" y="318" width="18" height="18" fill="#d79542" stroke="none"/>
<rect x="28" y="336" width="18" height="18" fill="#d79542" stroke="none"/>
<rect x="28" y="354" width="18" height="18" fill="#d79542" stroke="none"/>
<rect x="46" y="246" width="18" height="18" fill="#d79542" stroke="none"/>
<rect x="46" y="264" width="18" height="18" fill="#d79542" stroke="none"/>
<rect x="46" y="282" width="18" height="18" fill="#d79542" stroke="none"/>
<rect x="46" y="300" width="18" height="18" fill="#d79542" stroke="none"/>
<rect x="46" y="318" width="18" height="18" fill="#d79542" stroke="none"/>
<rect x="46" y="336" width="18" height="18" fill="#d79542" stroke="none"/>
<rect x="46" y="354" width="18" height="18" fill="#d79542" stroke="none"/>
<rect x="64" y="336" width="18" height="18" fill="#d79542" stroke="none"/>
<rect x="64" y="354" width="18" height="18" fill="#d79542" stroke="none"/>
<line x1="28" y1="246" x2="28" y2="264" stroke="#1f1f1f" stroke-width="2.3" stroke-linecap="square"/>
<line x1="28" y1="246" x2="46" y2="246" stroke="#1f1f1f" stroke-width="2.3" stroke-linecap="square"/>
<line x1="28" y1="264" x2="28" y2="282" stroke="#1f1f1f" stroke-width="2.3" stroke-linecap="square"/>
<line x1="28" y1="282" x2="28" y2="300" stroke="#1f1f1f" stroke-width="2.3" stroke-linecap="square"/>
<line x1="28" y1="300" x2="28" y2="318" stroke="#1f1f1f" stroke-width="2.3" stroke-linecap="square"/>
<line x1="28" y1="318" x2="28" y2="336" stroke="#1f1f1f" stroke-width="2.3" stroke-linecap="square"/>
<line x1="28" y1="336" x2="28" y2="354" stroke="#1f1f1f" stroke-width="2.3" stroke-linecap="square"/>
<line x1="28" y1="354" x2="28" y2="372" stroke="#1f1f1f" stroke-width="2.3" stroke-linecap="square"/>
<line x1="28" y1="372" x2="46" y2="372" stroke="#1f1f1f" stroke-width="2.3" stroke-linecap="square"/>
<line x1="64" y1="246" x2="64" y2="264" stroke="#1f1f1f" stroke-width="2.3" stroke-linecap="square"/>
<line x1="46" y1="246" x2="64" y2="246" stroke="#1f1f1f" stroke-width="2.3" stroke-linecap="square"/>
<line x1="64" y1="264" x2="64" y2="282" stroke="#1f1f1f" stroke-width="2.3" stroke-linecap="square"/>
<line x1="64" y1="282" x2="64" y2="300" stroke="#1f1f1f" stroke-width="2.3" stroke-linecap="square"/>
<line x1="64" y1="300" x2="64" y2="318" stroke="#1f1f1f" stroke-width="2.3" stroke-linecap="square"/>
<line x1="64" y1="318" x2="64" y2="336" stroke="#1f1f1f" stroke-width="2.3" stroke-linecap="square"/>
<line x1="46" y1="372" x2="64" y2="372" stroke="#1f1f1f" stroke-width="2.3" stroke-linecap="square"/>
<line x1="82" y1="336" x2="82" y2="354" stroke="#1f1f1f" stroke-width="2.3" stroke-linecap="square"/>
<line x1="64" y1="336" x2="82" y2="336" stroke="#1f1f1f" stroke-width="2.3" stroke-linecap="square"/>
<line x1="82" y1="354" x2="82" y2="372" stroke="#1f1f1f" stroke-width="2.3" stroke-linecap="square"/>
<line x1="64" y1="372" x2="82" y2="372" stroke="#1f1f1f" stroke-width="2.3" stroke-linecap="square"/>
<line x1="28" y1="246" x2="28" y2="372" stroke="#817c70" stroke-width="1.6"/>
<line x1="46" y1="246" x2="46" y2="372" stroke="#d7d2c6" stroke-width="0.8"/>
<line x1="64" y1="246" x2="64" y2="372" stroke="#817c70" stroke-width="1.6"/>
<line x1="82" y1="246" x2="82" y2="372" stroke="#d7d2c6" stroke-width="0.8"/>
<line x1="28" y1="246" x2="82" y2="246" stroke="#817c70" stroke-width="1.6"/>
<line x1="28" y1="264" x2="82" y2="264" stroke="#d7d2c6" stroke-width="0.8"/>
<line x1="28" y1="282" x2="82" y2="282" stroke="#817c70" stroke-width="1.6"/>
<line x1="28" y1="300" x2="82" y2="300" stroke="#d7d2c6" stroke-width="0.8"/>
<line x1="28" y1="318" x2="82" y2="318" stroke="#817c70" stroke-width="1.6"/>
<line x1="28" y1="336" x2="82" y2="336" stroke="#d7d2c6" stroke-width="0.8"/>
<line x1="28" y1="354" x2="82" y2="354" stroke="#817c70" stroke-width="1.6"/>
<line x1="28" y1="372" x2="82" y2="372" stroke="#d7d2c6" stroke-width="0.8"/>
<text x="142" y="238" font-family="Arial, sans-serif" font-size="15" font-weight="700" fill="#202020">Piece F</text>
<rect x="142" y="300" width="18" height="18" fill="#4db6ac" stroke="none"/>
<rect x="142" y="318" width="18" height="18" fill="#4db6ac" stroke="none"/>
<rect x="160" y="264" width="18" height="18" fill="#4db6ac" stroke="none"/>
<rect x="160" y="282" width="18" height="18" fill="#4db6ac" stroke="none"/>
<rect x="160" y="300" width="18" height="18" fill="#4db6ac" stroke="none"/>
<rect x="160" y="318" width="18" height="18" fill="#4db6ac" stroke="none"/>
<rect x="178" y="246" width="18" height="18" fill="#4db6ac" stroke="none"/>
<rect x="178" y="264" width="18" height="18" fill="#4db6ac" stroke="none"/>
<rect x="178" y="282" width="18" height="18" fill="#4db6ac" stroke="none"/>
<rect x="178" y="300" width="18" height="18" fill="#4db6ac" stroke="none"/>
<rect x="178" y="318" width="18" height="18" fill="#4db6ac" stroke="none"/>
<rect x="196" y="246" width="18" height="18" fill="#4db6ac" stroke="none"/>
<rect x="196" y="264" width="18" height="18" fill="#4db6ac" stroke="none"/>
<rect x="196" y="282" width="18" height="18" fill="#4db6ac" stroke="none"/>
<line x1="142" y1="300" x2="142" y2="318" stroke="#1f1f1f" stroke-width="2.3" stroke-linecap="square"/>
<line x1="142" y1="300" x2="160" y2="300" stroke="#1f1f1f" stroke-width="2.3" stroke-linecap="square"/>
<line x1="142" y1="318" x2="142" y2="336" stroke="#1f1f1f" stroke-width="2.3" stroke-linecap="square"/>
<line x1="142" y1="336" x2="160" y2="336" stroke="#1f1f1f" stroke-width="2.3" stroke-linecap="square"/>
<line x1="160" y1="264" x2="160" y2="282" stroke="#1f1f1f" stroke-width="2.3" stroke-linecap="square"/>
<line x1="160" y1="264" x2="178" y2="264" stroke="#1f1f1f" stroke-width="2.3" stroke-linecap="square"/>
<line x1="160" y1="282" x2="160" y2="300" stroke="#1f1f1f" stroke-width="2.3" stroke-linecap="square"/>
<line x1="160" y1="336" x2="178" y2="336" stroke="#1f1f1f" stroke-width="2.3" stroke-linecap="square"/>
<line x1="178" y1="246" x2="178" y2="264" stroke="#1f1f1f" stroke-width="2.3" stroke-linecap="square"/>
<line x1="178" y1="246" x2="196" y2="246" stroke="#1f1f1f" stroke-width="2.3" stroke-linecap="square"/>
<line x1="196" y1="300" x2="196" y2="318" stroke="#1f1f1f" stroke-width="2.3" stroke-linecap="square"/>
<line x1="196" y1="318" x2="196" y2="336" stroke="#1f1f1f" stroke-width="2.3" stroke-linecap="square"/>
<line x1="178" y1="336" x2="196" y2="336" stroke="#1f1f1f" stroke-width="2.3" stroke-linecap="square"/>
<line x1="214" y1="246" x2="214" y2="264" stroke="#1f1f1f" stroke-width="2.3" stroke-linecap="square"/>
<line x1="196" y1="246" x2="214" y2="246" stroke="#1f1f1f" stroke-width="2.3" stroke-linecap="square"/>
<line x1="214" y1="264" x2="214" y2="282" stroke="#1f1f1f" stroke-width="2.3" stroke-linecap="square"/>
<line x1="214" y1="282" x2="214" y2="300" stroke="#1f1f1f" stroke-width="2.3" stroke-linecap="square"/>
<line x1="196" y1="300" x2="214" y2="300" stroke="#1f1f1f" stroke-width="2.3" stroke-linecap="square"/>
<line x1="142" y1="246" x2="142" y2="336" stroke="#817c70" stroke-width="1.6"/>
<line x1="160" y1="246" x2="160" y2="336" stroke="#d7d2c6" stroke-width="0.8"/>
<line x1="178" y1="246" x2="178" y2="336" stroke="#817c70" stroke-width="1.6"/>
<line x1="196" y1="246" x2="196" y2="336" stroke="#d7d2c6" stroke-width="0.8"/>
<line x1="214" y1="246" x2="214" y2="336" stroke="#817c70" stroke-width="1.6"/>
<line x1="142" y1="246" x2="214" y2="246" stroke="#817c70" stroke-width="1.6"/>
<line x1="142" y1="264" x2="214" y2="264" stroke="#d7d2c6" stroke-width="0.8"/>
<line x1="142" y1="282" x2="214" y2="282" stroke="#817c70" stroke-width="1.6"/>
<line x1="142" y1="300" x2="214" y2="300" stroke="#d7d2c6" stroke-width="0.8"/>
<line x1="142" y1="318" x2="214" y2="318" stroke="#817c70" stroke-width="1.6"/>
<line x1="142" y1="336" x2="214" y2="336" stroke="#d7d2c6" stroke-width="0.8"/>
</svg>
