<svg xmlns="http://www.w3.org/2000/svg" width="200" height="272" viewBox="0 0 200 272">
<rect width="100%" height="100%" fill="#f8f7f2"/>

<rect x="28" y="28" width="18" height="18" fill="#cfd8dc" stroke="none"/>
<rect x="28" y="46" width="18" height="18" fill="#cfd8dc" stroke="none"/>
<rect x="28" y="64" width="18" height="18" fill="#cfd8dc" stroke="none"/>
<rect x="28" y="82" width="18" height="18" fill="#cfd8dc" stroke="none"/>
<rect x="28" y="100" width="18" height="18" fill="#cfd8dc" stroke="none"/>
<rect x="28" y="118" width="18" height="18" fill="#cfd8dc" stroke="none"/>
<rect x="28" y="136" width="18" height="18" fill="#cfd8dc" stroke="none"/>
<rect x="28" y="154" width="18" height="18" fill="#cfd8dc" stroke="none"/>
<rect x="28" y="172" width="18" height="18" fill="#cfd8dc" stroke="none"/>
<rect x="28" y="190" width="18" height="18" fill="#cfd8dc" stroke="none"/>
<rect x="28" y="208" width="18" height="18" fill="#cfd8dc" stroke="none"/>
<rect x="28" y="226" width="18" height="18" fill="#cfd8dc" stroke="none"/>
<rect x="46" y="28" width="18" height="18" fill="#cfd8dc" stroke="none"/>
<rect x="46" y="46" width="18" height="18" fill="#cfd8dc" stroke="none"/>
<rect x="46" y="64" width="18" height="18" fill="#cfd8dc" stroke="none"/>
<rect x="46" y="82" width="18" height="18" fill="#cfd8dc" stroke="none"/>
<rect x="46" y="100" width="18" height="18" fill="#cfd8dc" stroke="none"/>
<rect x="46" y="118" width="18" height="18" fill="#cfd8dc" stroke="none"/>
<rect x="46" y="136" width="18" height="18" fill="#cfd8dc" stroke="none"/>
<rect x="46" y="154" width="18" height="18" fill="#cfd8dc" stroke="none"/>
<rect x="46" y="172" width="18" height="18" fill="#cfd8dc" stroke="none"/>
<rect x="46" y="190" width="18" height="18" fill="#cfd8dc" stroke="none"/>
<rect x="46" y="208" width="18" height="18" fill="#cfd8dc" stroke="none"/>
<rect x="46" y="226" width="18" height="18" fill="#cfd8dc" stroke="none"/>
<rect x="64" y="28" width="18" height="18" fill="#cfd8dc" stroke="none"/>
<rect x="64" y="46" width="18" height="18" fill="#cfd8dc" stroke="none"/>
<rect x="64" y="64" width="18" height="18" fill="#cfd8dc" stroke="none"/>
<rect x="64" y="82" width="18" height="18" fill="#cfd8dc" stroke="none"/>
<rect x="64" y="100" width="18" height="18" fill="#cfd8dc" stroke="none"/>
<rect x="64" y="118" width="18" height="18" fill="#cfd8dc" stroke="none"/>
<rect x="64" y="136" width="18" height="18" fill="#cfd8dc" stroke="none"/>
<rect x="64" y="154" width="18" height="18" fill="#cfd8dc" stroke="none"/>
<rect x="64" y="172" width="18" height="18" fill="#cfd8dc" stroke="none"/>
<rect x="64" y="190" width="18" height="18" fill="#cfd8dc" stroke="none"/>
<rect x="64" y="208" width="18" height="18" fill="#cfd8dc" stroke="none"/>
<rect x="64" y="226" width="18" height="18" fill="#cfd8dc" stroke="none"/>
<rect x="82" y="28" width="18" height="18" fill="#cfd8dc" stroke="none"/>
<rect x="82" y="46" width="18" height="18" fill="#cfd8dc" stroke="none"/>
<rect x="82" y="64" width="18" height="18" fill="#cfd8dc" stroke="none"/>
<rect x="82" y="82" width="18" height="18" fill="#cfd8dc" stroke="none"/>
<rect x="82" y="100" width="18" height="18" fill="#cfd8dc" stroke="none"/>
<rect x="82" y="118" width="18" height="18" fill="#cfd8dc" stroke="none"/>
<rect x="82" y="136" width="18" height="18" fill="#cfd8dc" stroke="none"/>
<rect x="82" y="154" width="18" height="18" fill="#cfd8dc" stroke="none"/>
<rect x="82" y="172" width="18" height="18" fill="#cfd8dc" stroke="none"/>
<rect x="82" y="190" width="18" height="18" fill="#cfd8dc" stroke="none"/>
<rect x="82" y="208" width="18" height="18" fill="#cfd8dc" stroke="none"/>
<rect x="82" y="226" width="18" height="18" fill="#cfd8dc" stroke="none"/>
<rect x="100" y="28" width="18" height="18" fill="#cfd8dc" stroke="none"/>
<rect x="100" y="46" width="18" height="18" fill="#cfd8dc" stroke="none"/>
<rect x="100" y="64" width="18" height="18" fill="#cfd8dc" stroke="none"/>
<rect x="100" y="82" width="18" height="18" fill="#cfd8dc" stroke="none"/>
<rect x="100" y="100" width="18" height="18" fill="#cfd8dc" stroke="none"/>
<rect x="100" y="118" width="18" height="18" fill="#cfd8dc" stroke="none"/>
<rect x="100" y="136" width="18" height="18" fill="#cfd8dc" stroke="none"/>
<rect x="100" y="154" width="18" height="18" fill="#cfd8dc" stroke="none"/>
<rect x="100" y="172" width="18" height="18" fill="#cfd8dc" stroke="none"/>
<rect x="100" y="190" width="18" height="18" fill="#cfd8dc" stroke="none"/>
<rect x="100" y="208" width="18" height="18" fill="#cfd8dc" stroke="none"/>
<rect x="100" y="226" width="18" height="18" fill="#cfd8dc" stroke="none"/>
<rect x="118" y="28" width="18" height="18" fill="#cfd8dc" stroke="none"/>
<rect x="118" y="46" width="18" height="18" fill="#cfd8dc" stroke="none"/>
<rect x="118" y="64" width="18" height="18" fill="#cfd8dc" stroke="none"/>
<rect x="118" y="82" width="18" height="18" fill="#cfd8dc" stroke="none"/>
<rect x="118" y="100" width="18" height="18" fill="#cfd8dc" stroke="none"/>
<rect x="118" y="118" width="18" height="18" fill="#cfd8dc" stroke="none"/>
<rect x="118" y="136" width="18" height="18" fill="#cfd8dc" stroke="none"/>
<rect x="118" y="154" width="18" height="18" fill="#cfd8dc" stroke="none"/>
<rect x="118" y="172" width="18" height="18" fill="#cfd8dc" stroke="none"/>
<rect x="118" y="190" width="18" height="18" fill="#cfd8dc" stroke="none"/>
<rect x="118" y="208" width="18" height="18" fill="#cfd8dc" stroke="none"/>
<rect x="118" y="226" width="18" height="18" fill="#cfd8dc" stroke="none"/>
<rect x="136" y="64" width="18" height="18" fill="#cfd8dc" stroke="none"/>
<rect x="136" y="82" width="18" height="18" fill="#cfd8dc" stroke="none"/>
<rect x="136" y="100" width="18" height="18" fill="#cfd8dc" stroke="none"/>
<rect x="136" y="118" width="18" height="18" fill="#cfd8dc" stroke="none"/>
<rect x="136" y="136" width="18" height="18" fill="#cfd8dc" stroke="none"/>
<rect x="136" y="154" width="18" height="18" fill="#cfd8dc" stroke="none"/>
<rect x="136" y="172" width="18" height="18" fill="#cfd8dc" stroke="none"/>
<rect x="136" y="190" width="18" height="18" fill="#cfd8dc" stroke="none"/>
<rect x="136" y="208" width="18" height="18" fill="#cfd8dc" stroke="none"/>
<rect x="136" y="226" width="18" height="18" fill="#cfd8dc" stroke="none"/>
<rect x="154" y="64" width="18" height="18" fill="#cfd8dc" stroke="none"/>
<rect x="154" y="82" width="18" height="18" fill="#cfd8dc" stroke="none"/>
<rect x="154" y="100" width="18" height="18" fill="#cfd8dc" stroke="none"/>
<rect x="154" y="118" width="18" height="18" fill="#cfd8dc" stroke="none"/>
<rect x="154" y="136" width="18" height="18" fill="#cfd8dc" stroke="none"/>
<rect x="154" y="154" width="18" height="18" fill="#cfd8dc" stroke="none"/>
<rect x="154" y="172" width="18" height="18" fill="#cfd8dc" stroke="none"/>
<rect x="154" y="190" width="18" height="18" fill="#cfd8dc" stroke="none"/>
<rect x="154" y="208" width="18" height="18" fill="#cfd8dc" stroke="none"/>
<rect x="154" y="226" width="18" height="18" fill="#cfd8dc" stroke="none"/>
<line x1="28" y1="28" x2="28" y2="244" stroke="#817c70" stroke-width="1.6"/>
<line x1="46" y1="28" x2="46" y2="244" stroke="#d7d2c6" stroke-width="0.8"/>
<line x1="64" y1="28" x2="64" y2="244" stroke="#817c70" stroke-width="1.6"/>
<line x1="82" y1="28" x2="82" y2="244" stroke="#d7d2c6" stroke-width="0.8"/>
<line x1="100" y1="28" x2="100" y2="244" stroke="#817c70" stroke-width="1.6"/>
<line x1="118" y1="28" x2="118" y2="244" stroke="#d7d2c6" stroke-width="0.8"/>
<line x1="136" y1="28" x2="136" y2="244" stroke="#817c70" stroke-width="1.6"/>
<line x1="154" y1="28" x2="154" y2="244" stroke="#d7d2c6" stroke-width="0.8"/>
<line x1="172" y1="28" x2="172" y2="244" stroke="#817c70" stroke-width="1.6"/>
<line x1="28" y1="28" x2="172" y2="28" stroke="#817c70" stroke-width="1.6"/>
<line x1="28" y1="46" x2="172" y2="46" stroke="#d7d2c6" stroke-width="0.8"/>
<line x1="28" y1="64" x2="172" y2="64" stroke="#817c70" stroke-width="1.6"/>
<line x1="28" y1="82" x2="172" y2="82" stroke="#d7d2c6" stroke-width="0.8"/>
<line x1="28" y1="100" x2="172" y2="100" stroke="#817c70" stroke-width="1.6"/>
<line x1="28" y1="118" x2="172" y2="118" stroke="#d7d2c6" stroke-width="0.8"/>
<line x1="28" y1="136" x2="172" y2="136" stroke="#817c70" stroke-width="1.6"/>
<line x1="28" y1="154" x2="172" y2="154" stroke="#d7d2c6" stroke-width="0.8"/>
<line x1="28" y1="172" x2="172" y2="172" stroke="#817c70" stroke-width="1.6"/>
<line x1="28" y1="190" x2="172" y2="190" stroke="#d7d2c6" stroke-width="0.8"/>
<line x1="28" y1="208" x2="172" y2="208" stroke="#817c70" stroke-width="1.6"/>
<line x1="28" y1="226" x2="172" y2="226" stroke="#d7d2c6" stroke-width="0.8"/>
<line x1="28" y1="244" x2="172" y2="244" stroke="#817c70" stroke-width="1.6"/>
</svg>
