<svg xmlns="http://www.w3.org/2000/svg" width="758" height="400" viewBox="0 0 758 400">
<rect width="100%" height="100%" fill="#f8f7f2"/>

<text x="28" y="42" font-family="Arial, sans-serif" font-size="15" font-weight="700" fill="#202020">Piece A</text>
<rect x="28" y="50" width="18" height="18" fill="#df5b57" stroke="none"/>
<rect x="28" y="68" width="18" height="18" fill="#df5b57" stroke="none"/>
<rect x="46" y="50" width="18" height="18" fill="#df5b57" stroke="none"/>
<rect x="46" y="68" width="18" height="18" fill="#df5b57" stroke="none"/>
<rect x="64" y="50" width="18" height="18" fill="#df5b57" stroke="none"/>
<rect x="64" y="68" width="18" height="18" fill="#df5b57" stroke="none"/>
<rect x="82" y="50" width="18" height="18" fill="#df5b57" stroke="none"/>
<rect x="82" y="68" width="18" height="18" fill="#df5b57" stroke="none"/>
<rect x="100" y="50" width="18" height="18" fill="#df5b57" stroke="none"/>
<rect x="100" y="68" width="18" height="18" fill="#df5b57" stroke="none"/>
<rect x="118" y="50" width="18" height="18" fill="#df5b57" stroke="none"/>
<rect x="118" y="68" width="18" height="18" fill="#df5b57" stroke="none"/>
<rect x="136" y="50" width="18" height="18" fill="#df5b57" stroke="none"/>
<rect x="136" y="68" width="18" height="18" fill="#df5b57" stroke="none"/>
<rect x="136" y="86" width="18" height="18" fill="#df5b57" stroke="none"/>
<rect x="154" y="50" width="18" height="18" fill="#df5b57" stroke="none"/>
<rect x="154" y="68" width="18" height="18" fill="#df5b57" stroke="none"/>
<rect x="154" y="86" width="18" height="18" fill="#df5b57" stroke="none"/>
<line x1="28" y1="50" x2="28" y2="68" stroke="#1f1f1f" stroke-width="2.3" stroke-linecap="square"/>
<line x1="28" y1="50" x2="46" y2="50" stroke="#1f1f1f" stroke-width="2.3" stroke-linecap="square"/>
<line x1="28" y1="68" x2="28" y2="86" stroke="#1f1f1f" stroke-width="2.3" stroke-linecap="square"/>
<line x1="28" y1="86" x2="46" y2="86" stroke="#1f1f1f" stroke-width="2.3" stroke-linecap="square"/>
<line x1="46" y1="50" x2="64" y2="50" stroke="#1f1f1f" stroke-width="2.3" stroke-linecap="square"/>
<line x1="46" y1="86" x2="64" y2="86" stroke="#1f1f1f" stroke-width="2.3" stroke-linecap="square"/>
<line x1="64" y1="50" x2="82" y2="50" stroke="#1f1f1f" stroke-width="2.3" stroke-linecap="square"/>
<line x1="64" y1="86" x2="82" y2="86" stroke="#1f1f1f" stroke-width="2.3" stroke-linecap="square"/>
<line x1="82" y1="50" x2="100" y2="50" stroke="#1f1f1f" stroke-width="2.3" stroke-linecap="square"/>
<line x1="82" y1="86" x2="100" y2="86" stroke="#1f1f1f" stroke-width="2.3" stroke-linecap="square"/>
<line x1="100" y1="50" x2="118" y2="50" stroke="#1f1f1f" stroke-width="2.3" stroke-linecap="square"/>
<line x1="100" y1="86" x2="118" y2="86" stroke="#1f1f1f" stroke-width="2.3" stroke-linecap="square"/>
<line x1="118" y1="50" x2="136" y2="50" stroke="#1f1f1f" stroke-width="2.3" stroke-linecap="square"/>
<line x1="118" y1="86" x2="136" y2="86" stroke="#1f1f1f" stroke-width="2.3" stroke-linecap="square"/>
<line x1="136" y1="50" x2="154" y2="50" stroke="#1f1f1f" stroke-width="2.3" stroke-linecap="square"/>
<line x1="136" y1="86" x2="136" y2="104" stroke="#1f1f1f" stroke-width="2.3" stroke-linecap="square"/>
<line x1="136" y1="104" x2="154" y2="104" stroke="#1f1f1f" stroke-width="2.3" stroke-linecap="square"/>
<line x1="172" y1="50" x2="172" y2="68" stroke="#1f1f1f" stroke-width="2.3" stroke-linecap="square"/>
<line x1="154" y1="50" x2="172" y2="50" stroke="#1f1f1f" stroke-width="2.3" stroke-linecap="square"/>
<line x1="172" y1="68" x2="172" y2="86" stroke="#1f1f1f" stroke-width="2.3" stroke-linecap="square"/>
<line x1="172" y1="86" x2="172" y2="104" stroke="#1f1f1f" stroke-width="2.3" stroke-linecap="square"/>
<line x1="154" y1="104" x2="172" y2="104" stroke="#1f1f1f" stroke-width="2.3" stroke-linecap="square"/>
<line x1="28" y1="50" x2="28" y2="104" stroke="#817c70" stroke-width="1.6"/>
<line x1="46" y1="50" x2="46" y2="104" stroke="#d7d2c6" stroke-width="0.8"/>
<line x1="64" y1="50" x2="64" y2="104" stroke="#817c70" stroke-width="1.6"/>
<line x1="82" y1="50" x2="82" y2="104" stroke="#d7d2c6" stroke-width="0.8"/>
<line x1="100" y1="50" x2="100" y2="104" stroke="#817c70" stroke-width="1.6"/>
<line x1="118" y1="50" x2="118" y2="104" stroke="#d7d2c6" stroke-width="0.8"/>
<line x1="136" y1="50" x2="136" y2="104" stroke="#817c70" stroke-width="1.6"/>
<line x1="154" y1="50" x2="154" y2="104" stroke="#d7d2c6" stroke-width="0.8"/>
<line x1="172" y1="50" x2="172" y2="104" stroke="#817c70" stroke-width="1.6"/>
<line x1="28" y1="50" x2="172" y2="50" stroke="#817c70" stroke-width="1.6"/>
<line x1="28" y1="68" x2="172" y2="68" stroke="#d7d2c6" stroke-width="0.8"/>
<line x1="28" y1="86" x2="172" y2="86" stroke="#817c70" stroke-width="1.6"/>
<line x1="28" y1="104" x2="172" y2="104" stroke="#d7d2c6" stroke-width="0.8"/>
<text x="214" y="42" font-family="Arial, sans-serif" font-size="15" font-weight="700" fill="#202020">Piece B</text>
<rect x="214" y="50" width="18" height="18" fill="#4f8bd6" stroke="none"/>
<rect x="214" y="68" width="18" height="18" fill="#4f8bd6" stroke="none"/>
<rect x="232" y="50" width="18" height="18" fill="#4f8bd6" stroke="none"/>
<rect x="232" y="68" width="18" height="18" fill="#4f8bd6" stroke="none"/>
<rect x="250" y="50" width="18" height="18" fill="#4f8bd6" stroke="none"/>
<rect x="250" y="68" width="18" height="18" fill="#4f8bd6" stroke="none"/>
<rect x="268" y="50" width="18" height="18" fill="#4f8bd6" stroke="none"/>
<rect x="268" y="68" width="18" height="18" fill="#4f8bd6" stroke="none"/>
<rect x="268" y="86" width="18" height="18" fill="#4f8bd6" stroke="none"/>
<rect x="268" y="104" width="18" height="18" fill="#4f8bd6" stroke="none"/>
<rect x="286" y="50" width="18" height="18" fill="#4f8bd6" stroke="none"/>
<rect x="286" y="68" width="18" height="18" fill="#4f8bd6" stroke="none"/>
<rect x="286" y="86" width="18" height="18" fill="#4f8bd6" stroke="none"/>
<rect x="286" y="104" width="18" height="18" fill="#4f8bd6" stroke="none"/>
<rect x="304" y="50" width="18" height="18" fill="#4f8bd6" stroke="none"/>
<rect x="304" y="68" width="18" height="18" fill="#4f8bd6" stroke="none"/>
<line x1="214" y1="50" x2="214" y2="68" stroke="#1f1f1f" stroke-width="2.3" stroke-linecap="square"/>
<line x1="214" y1="50" x2="232" y2="50" stroke="#1f1f1f" stroke-width="2.3" stroke-linecap="square"/>
<line x1="214" y1="68" x2="214" y2="86" stroke="#1f1f1f" stroke-width="2.3" stroke-linecap="square"/>
<line x1="214" y1="86" x2="232" y2="86" stroke="#1f1f1f" stroke-width="2.3" stroke-linecap="square"/>
<line x1="232" y1="50" x2="250" y2="50" stroke="#1f1f1f" stroke-width="2.3" stroke-linecap="square"/>
<line x1="232" y1="86" x2="250" y2="86" stroke="#1f1f1f" stroke-width="2.3" stroke-linecap="square"/>
<line x1="250" y1="50" x2="268" y2="50" stroke="#1f1f1f" stroke-width="2.3" stroke-linecap="square"/>
<line x1="250" y1="86" x2="268" y2="86" stroke="#1f1f1f" stroke-width="2.3" stroke-linecap="square"/>
<line x1="268" y1="50" x2="286" y2="50" stroke="#1f1f1f" stroke-width="2.3" stroke-linecap="square"/>
<line x1="268" y1="86" x2="268" y2="104" stroke="#1f1f1f" stroke-width="2.3" stroke-linecap="square"/>
<line x1="268" y1="104" x2="268" y2="122" stroke="#1f1f1f" stroke-width="2.3" stroke-linecap="square"/>
<line x1="268" y1="122" x2="286" y2="122" stroke="#1f1f1f" stroke-width="2.3" stroke-linecap="square"/>
<line x1="286" y1="50" x2="304" y2="50" stroke="#1f1f1f" stroke-width="2.3" stroke-linecap="square"/>
<line x1="304" y1="86" x2="304" y2="104" stroke="#1f1f1f" stroke-width="2.3" stroke-linecap="square"/>
<line x1="304" y1="104" x2="304" y2="122" stroke="#1f1f1f" stroke-width="2.3" stroke-linecap="square"/>
<line x1="286" y1="122" x2="304" y2="122" stroke="#1f1f1f" stroke-width="2.3" stroke-linecap="square"/>
<line x1="322" y1="50" x2="322" y2="68" stroke="#1f1f1f" stroke-width="2.3" stroke-linecap="square"/>
<line x1="304" y1="50" x2="322" y2="50" stroke="#1f1f1f" stroke-width="2.3" stroke-linecap="square"/>
<line x1="322" y1="68" x2="322" y2="86" stroke="#1f1f1f" stroke-width="2.3" stroke-linecap="square"/>
<line x1="304" y1="86" x2="322" y2="86" stroke="#1f1f1f" stroke-width="2.3" stroke-linecap="square"/>
<line x1="214" y1="50" x2="214" y2="122" stroke="#817c70" stroke-width="1.6"/>
<line x1="232" y1="50" x2="232" y2="122" stroke="#d7d2c6" stroke-width="0.8"/>
<line x1="250" y1="50" x2="250" y2="122" stroke="#817c70" stroke-width="1.6"/>
<line x1="268" y1="50" x2="268" y2="122" stroke="#d7d2c6" stroke-width="0.8"/>
<line x1="286" y1="50" x2="286" y2="122" stroke="#817c70" stroke-width="1.6"/>
<line x1="304" y1="50" x2="304" y2="122" stroke="#d7d2c6" stroke-width="0.8"/>
<line x1="322" y1="50" x2="322" y2="122" stroke="#817c70" stroke-width="1.6"/>
<line x1="214" y1="50" x2="322" y2="50" stroke="#817c70" stroke-width="1.6"/>
<line x1="214" y1="68" x2="322" y2="68" stroke="#d7d2c6" stroke-width="0.8"/>
<line x1="214" y1="86" x2="322" y2="86" stroke="#817c70" stroke-width="1.6"/>
<line x1="214" y1="104" x2="322" y2="104" stroke="#d7d2c6" stroke-width="0.8"/>
<line x1="214" y1="122" x2="322" y2="122" stroke="#817c70" stroke-width="1.6"/>
<text x="400" y="42" font-family="Arial, sans-serif" font-size="15" font-weight="700" fill="#202020">Piece C</text>
<rect x="400" y="50" width="18" height="18" fill="#55a868" stroke="none"/>
<rect x="400" y="68" width="18" height="18" fill="#55a868" stroke="none"/>
<rect x="400" y="86" width="18" height="18" fill="#55a868" stroke="none"/>
<rect x="400" y="104" width="18" height="18" fill="#55a868" stroke="none"/>
<rect x="418" y="50" width="18" height="18" fill="#55a868" stroke="none"/>
<rect x="418" y="68" width="18" height="18" fill="#55a868" stroke="none"/>
<rect x="418" y="86" width="18" height="18" fill="#55a868" stroke="none"/>
<rect x="418" y="104" width="18" height="18" fill="#55a868" stroke="none"/>
<rect x="436" y="50" width="18" height="18" fill="#55a868" stroke="none"/>
<rect x="436" y="68" width="18" height="18" fill="#55a868" stroke="none"/>
<rect x="436" y="86" width="18" height="18" fill="#55a868" stroke="none"/>
<rect x="436" y="104" width="18" height="18" fill="#55a868" stroke="none"/>
<rect x="454" y="86" width="18" height="18" fill="#55a868" stroke="none"/>
<rect x="454" y="104" width="18" height="18" fill="#55a868" stroke="none"/>
<line x1="400" y1="50" x2="400" y2="68" stroke="#1f1f1f" stroke-width="2.3" stroke-linecap="square"/>
<line x1="400" y1="50" x2="418" y2="50" stroke="#1f1f1f" stroke-width="2.3" stroke-linecap="square"/>
<line x1="400" y1="68" x2="400" y2="86" stroke="#1f1f1f" stroke-width="2.3" stroke-linecap="square"/>
<line x1="400" y1="86" x2="400" y2="104" stroke="#1f1f1f" stroke-width="2.3" stroke-linecap="square"/>
<line x1="400" y1="104" x2="400" y2="122" stroke="#1f1f1f" stroke-width="2.3" stroke-linecap="square"/>
<line x1="400" y1="122" x2="418" y2="122" stroke="#1f1f1f" stroke-width="2.3" stroke-linecap="square"/>
<line x1="418" y1="50" x2="436" y2="50" stroke="#1f1f1f" stroke-width="2.3" stroke-linecap="square"/>
<line x1="418" y1="122" x2="436" y2="122" stroke="#1f1f1f" stroke-width="2.3" stroke-linecap="square"/>
<line x1="454" y1="50" x2="454" y2="68" stroke="#1f1f1f" stroke-width="2.3" stroke-linecap="square"/>
<line x1="436" y1="50" x2="454" y2="50" stroke="#1f1f1f" stroke-width="2.3" stroke-linecap="square"/>
<line x1="454" y1="68" x2="454" y2="86" stroke="#1f1f1f" stroke-width="2.3" stroke-linecap="square"/>
<line x1="436" y1="122" x2="454" y2="122" stroke="#1f1f1f" stroke-width="2.3" stroke-linecap="square"/>
<line x1="472" y1="86" x2="472" y2="104" stroke="#1f1f1f" stroke-width="2.3" stroke-linecap="square"/>
<line x1="454" y1="86" x2="472" y2="86" stroke="#1f1f1f" stroke-width="2.3" stroke-linecap="square"/>
<line x1="472" y1="104" x2="472" y2="122" stroke="#1f1f1f" stroke-width="2.3" stroke-linecap="square"/>
<line x1="454" y1="122" x2="472" y2="122" stroke="#1f1f1f" stroke-width="2.3" stroke-linecap="square"/>
<line x1="400" y1="50" x2="400" y2="122" stroke="#817c70" stroke-width="1.6"/>
<line x1="418" y1="50" x2="418" y2="122" stroke="#d7d2c6" stroke-width="0.8"/>
<line x1="436" y1="50" x2="436" y2="122" stroke="#817c70" stroke-width="1.6"/>
<line x1="454" y1="50" x2="454" y2="122" stroke="#d7d2c6" stroke-width="0.8"/>
<line x1="472" y1="50" x2="472" y2="122" stroke="#817c70" stroke-width="1.6"/>
<line x1="400" y1="50" x2="472" y2="50" stroke="#817c70" stroke-width="1.6"/>
<line x1="400" y1="68" x2="472" y2="68" stroke="#d7d2c6" stroke-width="0.8"/>
<line x1="400" y1="86" x2="472" y2="86" stroke="#817c70" stroke-width="1.6"/>
<line x1="400" y1="104" x2="472" y2="104" stroke="#d7d2c6" stroke-width="0.8"/>
<line x1="400" y1="122" x2="472" y2="122" stroke="#817c70" stroke-width="1.6"/>
<text x="586" y="42" font-family="Arial, sans-serif" font-size="15" font-weight="700" fill="#202020">Piece D</text>
<rect x="586" y="104" width="18" height="18" fill="#c77cce" stroke="none"/>
<rect x="586" y="122" width="18" height="18" fill="#c77cce" stroke="none"/>
<rect x="604" y="68" width="18" height="18" fill="#c77cce" stroke="none"/>
<rect x="604" y="86" width="18" height="18" fill="#c77cce" stroke="none"/>
<rect x="604" y="104" width="18" height="18" fill="#c77cce" stroke="none"/>
<rect x="604" y="122" width="18" height="18" fill="#c77cce" stroke="none"/>
<rect x="622" y="50" width="18" height="18" fill="#c77cce" stroke="none"/>
<rect x="622" y="68" width="18" height="18" fill="#c77cce" stroke="none"/>
<rect x="622" y="86" width="18" height="18" fill="#c77cce" stroke="none"/>
<rect x="622" y="104" width="18" height="18" fill="#c77cce" stroke="none"/>
<rect x="622" y="122" width="18" height="18" fill="#c77cce" stroke="none"/>
<rect x="640" y="50" width="18" height="18" fill="#c77cce" stroke="none"/>
<rect x="640" y="68" width="18" height="18" fill="#c77cce" stroke="none"/>
<rect x="640" y="86" width="18" height="18" fill="#c77cce" stroke="none"/>
<rect x="640" y="104" width="18" height="18" fill="#c77cce" stroke="none"/>
<rect x="640" y="122" width="18" height="18" fill="#c77cce" stroke="none"/>
<line x1="586" y1="104" x2="586" y2="122" stroke="#1f1f1f" stroke-width="2.3" stroke-linecap="square"/>
<line x1="586" y1="104" x2="604" y2="104" stroke="#1f1f1f" stroke-width="2.3" stroke-linecap="square"/>
<line x1="586" y1="122" x2="586" y2="140" stroke="#1f1f1f" stroke-width="2.3" stroke-linecap="square"/>
<line x1="586" y1="140" x2="604" y2="140" stroke="#1f1f1f" stroke-width="2.3" stroke-linecap="square"/>
<line x1="604" y1="68" x2="604" y2="86" stroke="#1f1f1f" stroke-width="2.3" stroke-linecap="square"/>
<line x1="604" y1="68" x2="622" y2="68" stroke="#1f1f1f" stroke-width="2.3" stroke-linecap="square"/>
<line x1="604" y1="86" x2="604" y2="104" stroke="#1f1f1f" stroke-width="2.3" stroke-linecap="square"/>
<line x1="604" y1="140" x2="622" y2="140" stroke="#1f1f1f" stroke-width="2.3" stroke-linecap="square"/>
<line x1="622" y1="50" x2="622" y2="68" stroke="#1f1f1f" stroke-width="2.3" stroke-linecap="square"/>
<line x1="622" y1="50" x2="640" y2="50" stroke="#1f1f1f" stroke-width="2.3" stroke-linecap="square"/>
<line x1="622" y1="140" x2="640" y2="140" stroke="#1f1f1f" stroke-width="2.3" stroke-linecap="square"/>
<line x1="658" y1="50" x2="658" y2="68" stroke="#1f1f1f" stroke-width="2.3" stroke-linecap="square"/>
<line x1="640" y1="50" x2="658" y2="50" stroke="#1f1f1f" stroke-width="2.3" stroke-linecap="square"/>
<line x1="658" y1="68" x2="658" y2="86" stroke="#1f1f1f" stroke-width="2.3" stroke-linecap="square"/>
<line x1="658" y1="86" x2="658" y2="104" stroke="#1f1f1f" stroke-width="2.3" stroke-linecap="square"/>
<line x1="658" y1="104" x2="658" y2="122" stroke="#1f1f1f" stroke-width="2.3" stroke-linecap="square"/>
<line x1="658" y1="122" x2="658" y2="140" stroke="#1f1f1f" stroke-width="2.3" stroke-linecap="square"/>
<line x1="640" y1="140" x2="658" y2="140" stroke="#1f1f1f" stroke-width="2.3" stroke-linecap="square"/>
<line x1="586" y1="50" x2="586" y2="140" stroke="#817c70" stroke-width="1.6"/>
<line x1="604" y1="50" x2="604" y2="140" stroke="#d7d2c6" stroke-width="0.8"/>
<line x1="622" y1="50" x2="622" y2="140" stroke="#817c70" stroke-width="1.6"/>
<line x1="640" y1="50" x2="640" y2="140" stroke="#d7d2c6" stroke-width="0.8"/>
<line x1="658" y1="50" x2="658" y2="140" stroke="#817c70" stroke-width="1.6"/>
<line x1="586" y1="50" x2="658" y2="50" stroke="#817c70" stroke-width="1.6"/>
<line x1="586" y1="68" x2="658" y2="68" stroke="#d7d2c6" stroke-width="0.8"/>
<line x1="586" y1="86" x2="658" y2="86" stroke="#817c70" stroke-width="1.6"/>
<line x1="586" y1="104" x2="658" y2="104" stroke="#d7d2c6" stroke-width="0.8"/>
<line x1="586" y1="122" x2="658" y2="122" stroke="#817c70" stroke-width="1.6"/>
<line x1="586" y1="140" x2="658" y2="140" stroke="#d7d2c6" stroke-width="0.8"/>
<text x="28" y="238" font-family="Arial, sans-serif" font-size="15" font-weight="700" fill="#202020">Piece E</text>
<rect x="28" y="246" width="18" height="18" fill="#d79542" stroke="none"/>
<rect x="28" y="264" width="18" height="18" fill="#d79542" stroke="none"/>
<rect x="28" y="282" width="18" height="18" fill="#d79542" stroke="none"/>
<rect x="28" y="300" width="18" height="18" fill="#d79542" stroke="none"/>
<rect x="28" y="318" width="18" height="18" fill="#d79542" stroke="none"/>
<rect x="28" y="336" width="18" height="18" fill="#d79542" stroke="none"/>
<rect x="28" y="354" width="18" height="18" fill="#d79542" stroke="none"/>
<rect x="46" y="246" width="18" height="18" fill="#d79542" stroke="none"/>
<rect x="46" y="264" width="18" height="18" fill="#d79542" stroke="none"/>
<rect x="46" y="282" width="18" height="18" fill="#d79542" stroke="none"/>
<rect x="46" y="300" width="18" height="18" fill="#d79542" stroke="none"/>
<rect x="46" y="318" width="18" height="18" fill="#d79542" stroke="none"/>
<rect x="46" y="336" width="18" height="18" fill="#d79542" stroke="none"/>
<rect x="46" y="354" width="18" height="18" fill="#d79542" stroke="none"/>
<line x1="28" y1="246" x2="28" y2="264" stroke="#1f1f1f" stroke-width="2.3" stroke-linecap="square"/>
<line x1="28" y1="246" x2="46" y2="246" stroke="#1f1f1f" stroke-width="2.3" stroke-linecap="square"/>
<line x1="28" y1="264" x2="28" y2="282" stroke="#1f1f1f" stroke-width="2.3" stroke-linecap="square"/>
<line x1="28" y1="282" x2="28" y2="300" stroke="#1f1f1f" stroke-width="2.3" stroke-linecap="square"/>
<line x1="28" y1="300" x2="28" y2="318" stroke="#1f1f1f" stroke-width="2.3" stroke-linecap="square"/>
<line x1="28" y1="318" x2="28" y2="336" stroke="#1f1f1f" stroke-width="2.3" stroke-linecap="square"/>
<line x1="28" y1="336" x2="28" y2="354" stroke="#1f1f1f" stroke-width="2.3" stroke-linecap="square"/>
<line x1="28" y1="354" x2="28" y2="372" stroke="#1f1f1f" stroke-width="2.3" stroke-linecap="square"/>
<line x1="28" y1="372" x2="46" y2="372" stroke="#1f1f1f" stroke-width="2.3" stroke-linecap="square"/>
<line x1="64" y1="246" x2="64" y2="264" stroke="#1f1f1f" stroke-width="2.3" stroke-linecap="square"/>
<line x1="46" y1="246" x2="64" y2="246" stroke="#1f1f1f" stroke-width="2.3" stroke-linecap="square"/>
<line x1="64" y1="264" x2="64" y2="282" stroke="#1f1f1f" stroke-width="2.3" stroke-linecap="square"/>
<line x1="64" y1="282" x2="64" y2="300" stroke="#1f1f1f" stroke-width="2.3" stroke-linecap="square"/>
<line x1="64" y1="300" x2="64" y2="318" stroke="#1f1f1f" stroke-width="2.3" stroke-linecap="square"/>
<line x1="64" y1="318" x2="64" y2="336" stroke="#1f1f1f" stroke-width="2.3" stroke-linecap="square"/>
<line x1="64" y1="336" x2="64" y2="354" stroke="#1f1f1f" stroke-width="2.3" stroke-linecap="square"/>
<line x1="64" y1="354" x2="64" y2="372" stroke="#1f1f1f" stroke-width="2.3" stroke-linecap="square"/>
<line x1="46" y1="372" x2="64" y2="372" stroke="#1f1f1f" stroke-width="2.3" stroke-linecap="square"/>
<line x1="28" y1="246" x2="28" y2="372" stroke="#817c70" stroke-width="1.6"/>
<line x1="46" y1="246" x2="46" y2="372" stroke="#d7d2c6" stroke-width="0.8"/>
<line x1="64" y1="246" x2="64" y2="372" stroke="#817c70" stroke-width="1.6"/>
<line x1="28" y1="246" x2="64" y2="246" stroke="#817c70" stroke-width="1.6"/>
<line x1="28" y1="264" x2="64" y2="264" stroke="#d7d2c6" stroke-width="0.8"/>
<line x1="28" y1="282" x2="64" y2="282" stroke="#817c70" stroke-width="1.6"/>
<line x1="28" y1="300" x2="64" y2="300" stroke="#d7d2c6" stroke-width="0.8"/>
<line x1="28" y1="318" x2="64" y2="318" stroke="#817c70" stroke-width="1.6"/>
<line x1="28" y1="336" x2="64" y2="336" stroke="#d7d2c6" stroke-width="0.8"/>
<line x1="28" y1="354" x2="64" y2="354" stroke="#817c70" stroke-width="1.6"/>
<line x1="28" y1="372" x2="64" y2="372" stroke="#d7d2c6" stroke-width="0.8"/>
<text x="214" y="238" font-family="Arial, sans-serif" font-size="15" font-weight="700" fill="#202020">Piece F</text>
<rect x="214" y="246" width="18" height="18" fill="#4db6ac" stroke="none"/>
<rect x="214" y="264" width="18" height="18" fill="#4db6ac" stroke="none"/>
<rect x="232" y="246" width="18" height="18" fill="#4db6ac" stroke="none"/>
<rect x="232" y="264" width="18" height="18" fill="#4db6ac" stroke="none"/>
<rect x="250" y="246" width="18" height="18" fill="#4db6ac" stroke="none"/>
<rect x="250" y="264" width="18" height="18" fill="#4db6ac" stroke="none"/>
<rect x="268" y="246" width="18" height="18" fill="#4db6ac" stroke="none"/>
<rect x="268" y="264" width="18" height="18" fill="#4db6ac" stroke="none"/>
<rect x="286" y="246" width="18" height="18" fill="#4db6ac" stroke="none"/>
<rect x="286" y="264" width="18" height="18" fill="#4db6ac" stroke="none"/>
<rect x="304" y="246" width="18" height="18" fill="#4db6ac" stroke="none"/>
<rect x="304" y="264" width="18" height="18" fill="#4db6ac" stroke="none"/>
<rect x="322" y="246" width="18" height="18" fill="#4db6ac" stroke="none"/>
<rect x="322" y="264" width="18" height="18" fill="#4db6ac" stroke="none"/>
<rect x="322" y="282" width="18" height="18" fill="#4db6ac" stroke="none"/>
<rect x="340" y="246" width="18" height="18" fill="#4db6ac" stroke="none"/>
<rect x="340" y="264" width="18" height="18" fill="#4db6ac" stroke="none"/>
<rect x="340" y="282" width="18" height="18" fill="#4db6ac" stroke="none"/>
<line x1="214" y1="246" x2="214" y2="264" stroke="#1f1f1f" stroke-width="2.3" stroke-linecap="square"/>
<line x1="214" y1="246" x2="232" y2="246" stroke="#1f1f1f" stroke-width="2.3" stroke-linecap="square"/>
<line x1="214" y1="264" x2="214" y2="282" stroke="#1f1f1f" stroke-width="2.3" stroke-linecap="square"/>
<line x1="214" y1="282" x2="232" y2="282" stroke="#1f1f1f" stroke-width="2.3" stroke-linecap="square"/>
<line x1="232" y1="246" x2="250" y2="246" stroke="#1f1f1f" stroke-width="2.3" stroke-linecap="square"/>
<line x1="232" y1="282" x2="250" y2="282" stroke="#1f1f1f" stroke-width="2.3" stroke-linecap="square"/>
<line x1="250" y1="246" x2="268" y2="246" stroke="#1f1f1f" stroke-width="2.3" stroke-linecap="square"/>
<line x1="250" y1="282" x2="268" y2="282" stroke="#1f1f1f" stroke-width="2.3" stroke-linecap="square"/>
<line x1="268" y1="246" x2="286" y2="246" stroke="#1f1f1f" stroke-width="2.3" stroke-linecap="square"/>
<line x1="268" y1="282" x2="286" y2="282" stroke="#1f1f1f" stroke-width="2.3" stroke-linecap="square"/>
<line x1="286" y1="246" x2="304" y2="246" stroke="#1f1f1f" stroke-width="2.3" stroke-linecap="square"/>
<line x1="286" y1="282" x2="304" y2="282" stroke="#1f1f1f" stroke-width="2.3" stroke-linecap="square"/>
<line x1="304" y1="246" x2="322" y2="246" stroke="#1f1f1f" stroke-width="2.3" stroke-linecap="square"/>
<line x1="304" y1="282" x2="322" y2="282" stroke="#1f1f1f" stroke-width="2.3" stroke-linecap="square"/>
<line x1="322" y1="246" x2="340" y2="246" stroke="#1f1f1f" stroke-width="2.3" stroke-linecap="square"/>
<line x1="322" y1="282" x2="322" y2="300" stroke="#1f1f1f" stroke-width="2.3" stroke-linecap="square"/>
<line x1="322" y1="300" x2="340" y2="300" stroke="#1f1f1f" stroke-width="2.3" stroke-linecap="square"/>
<line x1="358" y1="246" x2="358" y2="264" stroke="#1f1f1f" stroke-width="2.3" stroke-linecap="square"/>
<line x1="340" y1="246" x2="358" y2="246" stroke="#1f1f1f" stroke-width="2.3" stroke-linecap="square"/>
<line x1="358" y1="264" x2="358" y2="282" stroke="#1f1f1f" stroke-width="2.3" stroke-linecap="square"/>
<line x1="358" y1="282" x2="358" y2="300" stroke="#1f1f1f" stroke-width="2.3" stroke-linecap="square"/>
<line x1="340" y1="300" x2="358" y2="300" stroke="#1f1f1f" stroke-width="2.3" stroke-linecap="square"/>
<line x1="214" y1="246" x2="214" y2="300" stroke="#817c70" stroke-width="1.6"/>
<line x1="232" y1="246" x2="232" y2="300" stroke="#d7d2c6" stroke-width="0.8"/>
<line x1="250" y1="246" x2="250" y2="300" stroke="#817c70" stroke-width="1.6"/>
<line x1="268" y1="246" x2="268" y2="300" stroke="#d7d2c6" stroke-width="0.8"/>
<line x1="286" y1="246" x2="286" y2="300" stroke="#817c70" stroke-width="1.6"/>
<line x1="304" y1="246" x2="304" y2="300" stroke="#d7d2c6" stroke-width="0.8"/>
<line x1="322" y1="246" x2="322" y2="300" stroke="#817c70" stroke-width="1.6"/>
<line x1="340" y1="246" x2="340" y2="300" stroke="#d7d2c6" stroke-width="0.8"/>
<line x1="358" y1="246" x2="358" y2="300" stroke="#817c70" stroke-width="1.6"/>
<line x1="214" y1="246" x2="358" y2="246" stroke="#817c70" stroke-width="1.6"/>
<line x1="214" y1="264" x2="358" y2="264" stroke="#d7d2c6" stroke-width="0.8"/>
<line x1="214" y1="282" x2="358" y2="282" stroke="#817c70" stroke-width="1.6"/>
<line x1="214" y1="300" x2="358" y2="300" stroke="#d7d2c6" stroke-width="0.8"/>
</svg>
