<svg xmlns="http://www.w3.org/2000/svg" width="542" height="328" viewBox="0 0 542 328">
<rect width="100%" height="100%" fill="#f8f7f2"/>

<text x="28" y="42" font-family="Arial, sans-serif" font-size="15" font-weight="700" fill="#202020">Piece A</text>
<rect x="28" y="86" width="18" height="18" fill="#df5b57" stroke="none"/>
<rect x="28" y="104" width="18" height="18" fill="#df5b57" stroke="none"/>
<rect x="46" y="68" width="18" height="18" fill="#df5b57" stroke="none"/>
<rect x="46" y="86" width="18" height="18" fill="#df5b57" stroke="none"/>
<rect x="46" y="104" width="18" height="18" fill="#df5b57" stroke="none"/>
<rect x="64" y="68" width="18" height="18" fill="#df5b57" stroke="none"/>
<rect x="64" y="86" width="18" height="18" fill="#df5b57" stroke="none"/>
<rect x="64" y="104" width="18" height="18" fill="#df5b57" stroke="none"/>
<rect x="82" y="50" width="18" height="18" fill="#df5b57" stroke="none"/>
<rect x="82" y="68" width="18" height="18" fill="#df5b57" stroke="none"/>
<rect x="82" y="86" width="18" height="18" fill="#df5b57" stroke="none"/>
<rect x="100" y="50" width="18" height="18" fill="#df5b57" stroke="none"/>
<rect x="100" y="68" width="18" height="18" fill="#df5b57" stroke="none"/>
<rect x="100" y="86" width="18" height="18" fill="#df5b57" stroke="none"/>
<line x1="28" y1="86" x2="28" y2="104" stroke="#1f1f1f" stroke-width="2.3" stroke-linecap="square"/>
<line x1="28" y1="86" x2="46" y2="86" stroke="#1f1f1f" stroke-width="2.3" stroke-linecap="square"/>
<line x1="28" y1="104" x2="28" y2="122" stroke="#1f1f1f" stroke-width="2.3" stroke-linecap="square"/>
<line x1="28" y1="122" x2="46" y2="122" stroke="#1f1f1f" stroke-width="2.3" stroke-linecap="square"/>
<line x1="46" y1="68" x2="46" y2="86" stroke="#1f1f1f" stroke-width="2.3" stroke-linecap="square"/>
<line x1="46" y1="68" x2="64" y2="68" stroke="#1f1f1f" stroke-width="2.3" stroke-linecap="square"/>
<line x1="46" y1="122" x2="64" y2="122" stroke="#1f1f1f" stroke-width="2.3" stroke-linecap="square"/>
<line x1="64" y1="68" x2="82" y2="68" stroke="#1f1f1f" stroke-width="2.3" stroke-linecap="square"/>
<line x1="82" y1="104" x2="82" y2="122" stroke="#1f1f1f" stroke-width="2.3" stroke-linecap="square"/>
<line x1="64" y1="122" x2="82" y2="122" stroke="#1f1f1f" stroke-width="2.3" stroke-linecap="square"/>
<line x1="82" y1="50" x2="82" y2="68" stroke="#1f1f1f" stroke-width="2.3" stroke-linecap="square"/>
<line x1="82" y1="50" x2="100" y2="50" stroke="#1f1f1f" stroke-width="2.3" stroke-linecap="square"/>
<line x1="82" y1="104" x2="100" y2="104" stroke="#1f1f1f" stroke-width="2.3" stroke-linecap="square"/>
<line x1="118" y1="50" x2="118" y2="68" stroke="#1f1f1f" stroke-width="2.3" stroke-linecap="square"/>
<line x1="100" y1="50" x2="118" y2="50" stroke="#1f1f1f" stroke-width="2.3" stroke-linecap="square"/>
<line x1="118" y1="68" x2="118" y2="86" stroke="#1f1f1f" stroke-width="2.3" stroke-linecap="square"/>
<line x1="118" y1="86" x2="118" y2="104" stroke="#1f1f1f" stroke-width="2.3" stroke-linecap="square"/>
<line x1="100" y1="104" x2="118" y2="104" stroke="#1f1f1f" stroke-width="2.3" stroke-linecap="square"/>
<line x1="28" y1="50" x2="28" y2="122" stroke="#817c70" stroke-width="1.6"/>
<line x1="46" y1="50" x2="46" y2="122" stroke="#d7d2c6" stroke-width="0.8"/>
<line x1="64" y1="50" x2="64" y2="122" stroke="#817c70" stroke-width="1.6"/>
<line x1="82" y1="50" x2="82" y2="122" stroke="#d7d2c6" stroke-width="0.8"/>
<line x1="100" y1="50" x2="100" y2="122" stroke="#817c70" stroke-width="1.6"/>
<line x1="118" y1="50" x2="118" y2="122" stroke="#d7d2c6" stroke-width="0.8"/>
<line x1="28" y1="50" x2="118" y2="50" stroke="#817c70" stroke-width="1.6"/>
<line x1="28" y1="68" x2="118" y2="68" stroke="#d7d2c6" stroke-width="0.8"/>
<line x1="28" y1="86" x2="118" y2="86" stroke="#817c70" stroke-width="1.6"/>
<line x1="28" y1="104" x2="118" y2="104" stroke="#d7d2c6" stroke-width="0.8"/>
<line x1="28" y1="122" x2="118" y2="122" stroke="#817c70" stroke-width="1.6"/>
<text x="160" y="42" font-family="Arial, sans-serif" font-size="15" font-weight="700" fill="#202020">Piece B</text>
<rect x="160" y="50" width="18" height="18" fill="#4f8bd6" stroke="none"/>
<rect x="160" y="68" width="18" height="18" fill="#4f8bd6" stroke="none"/>
<rect x="160" y="86" width="18" height="18" fill="#4f8bd6" stroke="none"/>
<rect x="160" y="104" width="18" height="18" fill="#4f8bd6" stroke="none"/>
<rect x="178" y="50" width="18" height="18" fill="#4f8bd6" stroke="none"/>
<rect x="178" y="68" width="18" height="18" fill="#4f8bd6" stroke="none"/>
<rect x="178" y="86" width="18" height="18" fill="#4f8bd6" stroke="none"/>
<rect x="178" y="104" width="18" height="18" fill="#4f8bd6" stroke="none"/>
<rect x="196" y="50" width="18" height="18" fill="#4f8bd6" stroke="none"/>
<rect x="196" y="68" width="18" height="18" fill="#4f8bd6" stroke="none"/>
<rect x="196" y="86" width="18" height="18" fill="#4f8bd6" stroke="none"/>
<rect x="196" y="104" width="18" height="18" fill="#4f8bd6" stroke="none"/>
<rect x="214" y="86" width="18" height="18" fill="#4f8bd6" stroke="none"/>
<rect x="214" y="104" width="18" height="18" fill="#4f8bd6" stroke="none"/>
<rect x="232" y="86" width="18" height="18" fill="#4f8bd6" stroke="none"/>
<rect x="232" y="104" width="18" height="18" fill="#4f8bd6" stroke="none"/>
<line x1="160" y1="50" x2="160" y2="68" stroke="#1f1f1f" stroke-width="2.3" stroke-linecap="square"/>
<line x1="160" y1="50" x2="178" y2="50" stroke="#1f1f1f" stroke-width="2.3" stroke-linecap="square"/>
<line x1="160" y1="68" x2="160" y2="86" stroke="#1f1f1f" stroke-width="2.3" stroke-linecap="square"/>
<line x1="160" y1="86" x2="160" y2="104" stroke="#1f1f1f" stroke-width="2.3" stroke-linecap="square"/>
<line x1="160" y1="104" x2="160" y2="122" stroke="#1f1f1f" stroke-width="2.3" stroke-linecap="square"/>
<line x1="160" y1="122" x2="178" y2="122" stroke="#1f1f1f" stroke-width="2.3" stroke-linecap="square"/>
<line x1="178" y1="50" x2="196" y2="50" stroke="#1f1f1f" stroke-width="2.3" stroke-linecap="square"/>
<line x1="178" y1="122" x2="196" y2="122" stroke="#1f1f1f" stroke-width="2.3" stroke-linecap="square"/>
<line x1="214" y1="50" x2="214" y2="68" stroke="#1f1f1f" stroke-width="2.3" stroke-linecap="square"/>
<line x1="196" y1="50" x2="214" y2="50" stroke="#1f1f1f" stroke-width="2.3" stroke-linecap="square"/>
<line x1="214" y1="68" x2="214" y2="86" stroke="#1f1f1f" stroke-width="2.3" stroke-linecap="square"/>
<line x1="196" y1="122" x2="214" y2="122" stroke="#1f1f1f" stroke-width="2.3" stroke-linecap="square"/>
<line x1="214" y1="86" x2="232" y2="86" stroke="#1f1f1f" stroke-width="2.3" stroke-linecap="square"/>
<line x1="214" y1="122" x2="232" y2="122" stroke="#1f1f1f" stroke-width="2.3" stroke-linecap="square"/>
<line x1="250" y1="86" x2="250" y2="104" stroke="#1f1f1f" stroke-width="2.3" stroke-linecap="square"/>
<line x1="232" y1="86" x2="250" y2="86" stroke="#1f1f1f" stroke-width="2.3" stroke-linecap="square"/>
<line x1="250" y1="104" x2="250" y2="122" stroke="#1f1f1f" stroke-width="2.3" stroke-linecap="square"/>
<line x1="232" y1="122" x2="250" y2="122" stroke="#1f1f1f" stroke-width="2.3" stroke-linecap="square"/>
<line x1="160" y1="50" x2="160" y2="122" stroke="#817c70" stroke-width="1.6"/>
<line x1="178" y1="50" x2="178" y2="122" stroke="#d7d2c6" stroke-width="0.8"/>
<line x1="196" y1="50" x2="196" y2="122" stroke="#817c70" stroke-width="1.6"/>
<line x1="214" y1="50" x2="214" y2="122" stroke="#d7d2c6" stroke-width="0.8"/>
<line x1="232" y1="50" x2="232" y2="122" stroke="#817c70" stroke-width="1.6"/>
<line x1="250" y1="50" x2="250" y2="122" stroke="#d7d2c6" stroke-width="0.8"/>
<line x1="160" y1="50" x2="250" y2="50" stroke="#817c70" stroke-width="1.6"/>
<line x1="160" y1="68" x2="250" y2="68" stroke="#d7d2c6" stroke-width="0.8"/>
<line x1="160" y1="86" x2="250" y2="86" stroke="#817c70" stroke-width="1.6"/>
<line x1="160" y1="104" x2="250" y2="104" stroke="#d7d2c6" stroke-width="0.8"/>
<line x1="160" y1="122" x2="250" y2="122" stroke="#817c70" stroke-width="1.6"/>
<text x="292" y="42" font-family="Arial, sans-serif" font-size="15" font-weight="700" fill="#202020">Piece C</text>
<rect x="292" y="50" width="18" height="18" fill="#55a868" stroke="none"/>
<rect x="292" y="68" width="18" height="18" fill="#55a868" stroke="none"/>
<rect x="292" y="86" width="18" height="18" fill="#55a868" stroke="none"/>
<rect x="292" y="104" width="18" height="18" fill="#55a868" stroke="none"/>
<rect x="310" y="50" width="18" height="18" fill="#55a868" stroke="none"/>
<rect x="310" y="68" width="18" height="18" fill="#55a868" stroke="none"/>
<rect x="310" y="86" width="18" height="18" fill="#55a868" stroke="none"/>
<rect x="310" y="104" width="18" height="18" fill="#55a868" stroke="none"/>
<rect x="328" y="50" width="18" height="18" fill="#55a868" stroke="none"/>
<rect x="328" y="68" width="18" height="18" fill="#55a868" stroke="none"/>
<rect x="328" y="86" width="18" height="18" fill="#55a868" stroke="none"/>
<rect x="328" y="104" width="18" height="18" fill="#55a868" stroke="none"/>
<rect x="346" y="86" width="18" height="18" fill="#55a868" stroke="none"/>
<rect x="346" y="104" width="18" height="18" fill="#55a868" stroke="none"/>
<line x1="292" y1="50" x2="292" y2="68" stroke="#1f1f1f" stroke-width="2.3" stroke-linecap="square"/>
<line x1="292" y1="50" x2="310" y2="50" stroke="#1f1f1f" stroke-width="2.3" stroke-linecap="square"/>
<line x1="292" y1="68" x2="292" y2="86" stroke="#1f1f1f" stroke-width="2.3" stroke-linecap="square"/>
<line x1="292" y1="86" x2="292" y2="104" stroke="#1f1f1f" stroke-width="2.3" stroke-linecap="square"/>
<line x1="292" y1="104" x2="292" y2="122" stroke="#1f1f1f" stroke-width="2.3" stroke-linecap="square"/>
<line x1="292" y1="122" x2="310" y2="122" stroke="#1f1f1f" stroke-width="2.3" stroke-linecap="square"/>
<line x1="310" y1="50" x2="328" y2="50" stroke="#1f1f1f" stroke-width="2.3" stroke-linecap="square"/>
<line x1="310" y1="122" x2="328" y2="122" stroke="#1f1f1f" stroke-width="2.3" stroke-linecap="square"/>
<line x1="346" y1="50" x2="346" y2="68" stroke="#1f1f1f" stroke-width="2.3" stroke-linecap="square"/>
<line x1="328" y1="50" x2="346" y2="50" stroke="#1f1f1f" stroke-width="2.3" stroke-linecap="square"/>
<line x1="346" y1="68" x2="346" y2="86" stroke="#1f1f1f" stroke-width="2.3" stroke-linecap="square"/>
<line x1="328" y1="122" x2="346" y2="122" stroke="#1f1f1f" stroke-width="2.3" stroke-linecap="square"/>
<line x1="364" y1="86" x2="364" y2="104" stroke="#1f1f1f" stroke-width="2.3" stroke-linecap="square"/>
<line x1="346" y1="86" x2="364" y2="86" stroke="#1f1f1f" stroke-width="2.3" stroke-linecap="square"/>
<line x1="364" y1="104" x2="364" y2="122" stroke="#1f1f1f" stroke-width="2.3" stroke-linecap="square"/>
<line x1="346" y1="122" x2="364" y2="122" stroke="#1f1f1f" stroke-width="2.3" stroke-linecap="square"/>
<line x1="292" y1="50" x2="292" y2="122" stroke="#817c70" stroke-width="1.6"/>
<line x1="310" y1="50" x2="310" y2="122" stroke="#d7d2c6" stroke-width="0.8"/>
<line x1="328" y1="50" x2="328" y2="122" stroke="#817c70" stroke-width="1.6"/>
<line x1="346" y1="50" x2="346" y2="122" stroke="#d7d2c6" stroke-width="0.8"/>
<line x1="364" y1="50" x2="364" y2="122" stroke="#817c70" stroke-width="1.6"/>
<line x1="292" y1="50" x2="364" y2="50" stroke="#817c70" stroke-width="1.6"/>
<line x1="292" y1="68" x2="364" y2="68" stroke="#d7d2c6" stroke-width="0.8"/>
<line x1="292" y1="86" x2="364" y2="86" stroke="#817c70" stroke-width="1.6"/>
<line x1="292" y1="104" x2="364" y2="104" stroke="#d7d2c6" stroke-width="0.8"/>
<line x1="292" y1="122" x2="364" y2="122" stroke="#817c70" stroke-width="1.6"/>
<text x="424" y="42" font-family="Arial, sans-serif" font-size="15" font-weight="700" fill="#202020">Piece D</text>
<rect x="424" y="50" width="18" height="18" fill="#c77cce" stroke="none"/>
<rect x="424" y="68" width="18" height="18" fill="#c77cce" stroke="none"/>
<rect x="442" y="50" width="18" height="18" fill="#c77cce" stroke="none"/>
<rect x="442" y="68" width="18" height="18" fill="#c77cce" stroke="none"/>
<rect x="460" y="50" width="18" height="18" fill="#c77cce" stroke="none"/>
<rect x="460" y="68" width="18" height="18" fill="#c77cce" stroke="none"/>
<rect x="460" y="86" width="18" height="18" fill="#c77cce" stroke="none"/>
<rect x="460" y="104" width="18" height="18" fill="#c77cce" stroke="none"/>
<rect x="478" y="50" width="18" height="18" fill="#c77cce" stroke="none"/>
<rect x="478" y="68" width="18" height="18" fill="#c77cce" stroke="none"/>
<rect x="478" y="86" width="18" height="18" fill="#c77cce" stroke="none"/>
<rect x="478" y="104" width="18" height="18" fill="#c77cce" stroke="none"/>
<rect x="478" y="122" width="18" height="18" fill="#c77cce" stroke="none"/>
<rect x="496" y="50" width="18" height="18" fill="#c77cce" stroke="none"/>
<rect x="496" y="68" width="18" height="18" fill="#c77cce" stroke="none"/>
<rect x="496" y="86" width="18" height="18" fill="#c77cce" stroke="none"/>
<rect x="496" y="104" width="18" height="18" fill="#c77cce" stroke="none"/>
<rect x="496" y="122" width="18" height="18" fill="#c77cce" stroke="none"/>
<line x1="424" y1="50" x2="424" y2="68" stroke="#1f1f1f" stroke-width="2.3" stroke-linecap="square"/>
<line x1="424" y1="50" x2="442" y2="50" stroke="#1f1f1f" stroke-width="2.3" stroke-linecap="square"/>
<line x1="424" y1="68" x2="424" y2="86" stroke="#1f1f1f" stroke-width="2.3" stroke-linecap="square"/>
<line x1="424" y1="86" x2="442" y2="86" stroke="#1f1f1f" stroke-width="2.3" stroke-linecap="square"/>
<line x1="442" y1="50" x2="460" y2="50" stroke="#1f1f1f" stroke-width="2.3" stroke-linecap="square"/>
<line x1="442" y1="86" x2="460" y2="86" stroke="#1f1f1f" stroke-width="2.3" stroke-linecap="square"/>
<line x1="460" y1="50" x2="478" y2="50" stroke="#1f1f1f" stroke-width="2.3" stroke-linecap="square"/>
<line x1="460" y1="86" x2="460" y2="104" stroke="#1f1f1f" stroke-width="2.3" stroke-linecap="square"/>
<line x1="460" y1="104" x2="460" y2="122" stroke="#1f1f1f" stroke-width="2.3" stroke-linecap="square"/>
<line x1="460" y1="122" x2="478" y2="122" stroke="#1f1f1f" stroke-width="2.3" stroke-linecap="square"/>
<line x1="478" y1="50" x2="496" y2="50" stroke="#1f1f1f" stroke-width="2.3" stroke-linecap="square"/>
<line x1="478" y1="122" x2="478" y2="140" stroke="#1f1f1f" stroke-width="2.3" stroke-linecap="square"/>
<line x1="478" y1="140" x2="496" y2="140" stroke="#1f1f1f" stroke-width="2.3" stroke-linecap="square"/>
<line x1="514" y1="50" x2="514" y2="68" stroke="#1f1f1f" stroke-width="2.3" stroke-linecap="square"/>
<line x1="496" y1="50" x2="514" y2="50" stroke="#1f1f1f" stroke-width="2.3" stroke-linecap="square"/>
<line x1="514" y1="68" x2="514" y2="86" stroke="#1f1f1f" stroke-width="2.3" stroke-linecap="square"/>
<line x1="514" y1="86" x2="514" y2="104" stroke="#1f1f1f" stroke-width="2.3" stroke-linecap="square"/>
<line x1="514" y1="104" x2="514" y2="122" stroke="#1f1f1f" stroke-width="2.3" stroke-linecap="square"/>
<line x1="514" y1="122" x2="514" y2="140" stroke="#1f1f1f" stroke-width="2.3" stroke-linecap="square"/>
<line x1="496" y1="140" x2="514" y2="140" stroke="#1f1f1f" stroke-width="2.3" stroke-linecap="square"/>
<line x1="424" y1="50" x2="424" y2="140" stroke="#817c70" stroke-width="1.6"/>
<line x1="442" y1="50" x2="442" y2="140" stroke="#d7d2c6" stroke-width="0.8"/>
<line x1="460" y1="50" x2="460" y2="140" stroke="#817c70" stroke-width="1.6"/>
<line x1="478" y1="50" x2="478" y2="140" stroke="#d7d2c6" stroke-width="0.8"/>
<line x1="496" y1="50" x2="496" y2="140" stroke="#817c70" stroke-width="1.6"/>
<line x1="514" y1="50" x2="514" y2="140" stroke="#d7d2c6" stroke-width="0.8"/>
<line x1="424" y1="50" x2="514" y2="50" stroke="#817c70" stroke-width="1.6"/>
<line x1="424" y1="68" x2="514" y2="68" stroke="#d7d2c6" stroke-width="0.8"/>
<line x1="424" y1="86" x2="514" y2="86" stroke="#817c70" stroke-width="1.6"/>
<line x1="424" y1="104" x2="514" y2="104" stroke="#d7d2c6" stroke-width="0.8"/>
<line x1="424" y1="122" x2="514" y2="122" stroke="#817c70" stroke-width="1.6"/>
<line x1="424" y1="140" x2="514" y2="140" stroke="#d7d2c6" stroke-width="0.8"/>
<text x="28" y="202" font-family="Arial, sans-serif" font-size="15" font-weight="700" fill="#202020">Piece E</text>
<rect x="28" y="264" width="18" height="18" fill="#d79542" stroke="none"/>
<rect x="28" y="282" width="18" height="18" fill="#d79542" stroke="none"/>
<rect x="46" y="246" width="18" height="18" fill="#d79542" stroke="none"/>
<rect x="46" y="264" width="18" height="18" fill="#d79542" stroke="none"/>
<rect x="46" y="282" width="18" height="18" fill="#d79542" stroke="none"/>
<rect x="64" y="246" width="18" height="18" fill="#d79542" stroke="none"/>
<rect x="64" y="264" width="18" height="18" fill="#d79542" stroke="none"/>
<rect x="64" y="282" width="18" height="18" fill="#d79542" stroke="none"/>
<rect x="82" y="210" width="18" height="18" fill="#d79542" stroke="none"/>
<rect x="82" y="228" width="18" height="18" fill="#d79542" stroke="none"/>
<rect x="82" y="246" width="18" height="18" fill="#d79542" stroke="none"/>
<rect x="82" y="264" width="18" height="18" fill="#d79542" stroke="none"/>
<rect x="82" y="282" width="18" height="18" fill="#d79542" stroke="none"/>
<rect x="100" y="210" width="18" height="18" fill="#d79542" stroke="none"/>
<rect x="100" y="228" width="18" height="18" fill="#d79542" stroke="none"/>
<rect x="100" y="246" width="18" height="18" fill="#d79542" stroke="none"/>
<rect x="100" y="264" width="18" height="18" fill="#d79542" stroke="none"/>
<rect x="100" y="282" width="18" height="18" fill="#d79542" stroke="none"/>
<line x1="28" y1="264" x2="28" y2="282" stroke="#1f1f1f" stroke-width="2.3" stroke-linecap="square"/>
<line x1="28" y1="264" x2="46" y2="264" stroke="#1f1f1f" stroke-width="2.3" stroke-linecap="square"/>
<line x1="28" y1="282" x2="28" y2="300" stroke="#1f1f1f" stroke-width="2.3" stroke-linecap="square"/>
<line x1="28" y1="300" x2="46" y2="300" stroke="#1f1f1f" stroke-width="2.3" stroke-linecap="square"/>
<line x1="46" y1="246" x2="46" y2="264" stroke="#1f1f1f" stroke-width="2.3" stroke-linecap="square"/>
<line x1="46" y1="246" x2="64" y2="246" stroke="#1f1f1f" stroke-width="2.3" stroke-linecap="square"/>
<line x1="46" y1="300" x2="64" y2="300" stroke="#1f1f1f" stroke-width="2.3" stroke-linecap="square"/>
<line x1="64" y1="246" x2="82" y2="246" stroke="#1f1f1f" stroke-width="2.3" stroke-linecap="square"/>
<line x1="64" y1="300" x2="82" y2="300" stroke="#1f1f1f" stroke-width="2.3" stroke-linecap="square"/>
<line x1="82" y1="210" x2="82" y2="228" stroke="#1f1f1f" stroke-width="2.3" stroke-linecap="square"/>
<line x1="82" y1="210" x2="100" y2="210" stroke="#1f1f1f" stroke-width="2.3" stroke-linecap="square"/>
<line x1="82" y1="228" x2="82" y2="246" stroke="#1f1f1f" stroke-width="2.3" stroke-linecap="square"/>
<line x1="82" y1="300" x2="100" y2="300" stroke="#1f1f1f" stroke-width="2.3" stroke-linecap="square"/>
<line x1="118" y1="210" x2="118" y2="228" stroke="#1f1f1f" stroke-width="2.3" stroke-linecap="square"/>
<line x1="100" y1="210" x2="118" y2="210" stroke="#1f1f1f" stroke-width="2.3" stroke-linecap="square"/>
<line x1="118" y1="228" x2="118" y2="246" stroke="#1f1f1f" stroke-width="2.3" stroke-linecap="square"/>
<line x1="118" y1="246" x2="118" y2="264" stroke="#1f1f1f" stroke-width="2.3" stroke-linecap="square"/>
<line x1="118" y1="264" x2="118" y2="282" stroke="#1f1f1f" stroke-width="2.3" stroke-linecap="square"/>
<line x1="118" y1="282" x2="118" y2="300" stroke="#1f1f1f" stroke-width="2.3" stroke-linecap="square"/>
<line x1="100" y1="300" x2="118" y2="300" stroke="#1f1f1f" stroke-width="2.3" stroke-linecap="square"/>
<line x1="28" y1="210" x2="28" y2="300" stroke="#817c70" stroke-width="1.6"/>
<line x1="46" y1="210" x2="46" y2="300" stroke="#d7d2c6" stroke-width="0.8"/>
<line x1="64" y1="210" x2="64" y2="300" stroke="#817c70" stroke-width="1.6"/>
<line x1="82" y1="210" x2="82" y2="300" stroke="#d7d2c6" stroke-width="0.8"/>
<line x1="100" y1="210" x2="100" y2="300" stroke="#817c70" stroke-width="1.6"/>
<line x1="118" y1="210" x2="118" y2="300" stroke="#d7d2c6" stroke-width="0.8"/>
<line x1="28" y1="210" x2="118" y2="210" stroke="#817c70" stroke-width="1.6"/>
<line x1="28" y1="228" x2="118" y2="228" stroke="#d7d2c6" stroke-width="0.8"/>
<line x1="28" y1="246" x2="118" y2="246" stroke="#817c70" stroke-width="1.6"/>
<line x1="28" y1="264" x2="118" y2="264" stroke="#d7d2c6" stroke-width="0.8"/>
<line x1="28" y1="282" x2="118" y2="282" stroke="#817c70" stroke-width="1.6"/>
<line x1="28" y1="300" x2="118" y2="300" stroke="#d7d2c6" stroke-width="0.8"/>
<text x="160" y="202" font-family="Arial, sans-serif" font-size="15" font-weight="700" fill="#202020">Piece F</text>
<rect x="160" y="210" width="18" height="18" fill="#4db6ac" stroke="none"/>
<rect x="160" y="228" width="18" height="18" fill="#4db6ac" stroke="none"/>
<rect x="178" y="210" width="18" height="18" fill="#4db6ac" stroke="none"/>
<rect x="178" y="228" width="18" height="18" fill="#4db6ac" stroke="none"/>
<rect x="178" y="246" width="18" height="18" fill="#4db6ac" stroke="none"/>
<rect x="178" y="264" width="18" height="18" fill="#4db6ac" stroke="none"/>
<rect x="196" y="210" width="18" height="18" fill="#4db6ac" stroke="none"/>
<rect x="196" y="228" width="18" height="18" fill="#4db6ac" stroke="none"/>
<rect x="196" y="246" width="18" height="18" fill="#4db6ac" stroke="none"/>
<rect x="196" y="264" width="18" height="18" fill="#4db6ac" stroke="none"/>
<rect x="196" y="282" width="18" height="18" fill="#4db6ac" stroke="none"/>
<rect x="214" y="246" width="18" height="18" fill="#4db6ac" stroke="none"/>
<rect x="214" y="264" width="18" height="18" fill="#4db6ac" stroke="none"/>
<rect x="214" y="282" width="18" height="18" fill="#4db6ac" stroke="none"/>
<rect x="232" y="246" width="18" height="18" fill="#4db6ac" stroke="none"/>
<rect x="232" y="264" width="18" height="18" fill="#4db6ac" stroke="none"/>
<line x1="160" y1="210" x2="160" y2="228" stroke="#1f1f1f" stroke-width="2.3" stroke-linecap="square"/>
<line x1="160" y1="210" x2="178" y2="210" stroke="#1f1f1f" stroke-width="2.3" stroke-linecap="square"/>
<line x1="160" y1="228" x2="160" y2="246" stroke="#1f1f1f" stroke-width="2.3" stroke-linecap="square"/>
<line x1="160" y1="246" x2="178" y2="246" stroke="#1f1f1f" stroke-width="2.3" stroke-linecap="square"/>
<line x1="178" y1="210" x2="196" y2="210" stroke="#1f1f1f" stroke-width="2.3" stroke-linecap="square"/>
<line x1="178" y1="246" x2="178" y2="264" stroke="#1f1f1f" stroke-width="2.3" stroke-linecap="square"/>
<line x1="178" y1="264" x2="178" y2="282" stroke="#1f1f1f" stroke-width="2.3" stroke-linecap="square"/>
<line x1="178" y1="282" x2="196" y2="282" stroke="#1f1f1f" stroke-width="2.3" stroke-linecap="square"/>
<line x1="214" y1="210" x2="214" y2="228" stroke="#1f1f1f" stroke-width="2.3" stroke-linecap="square"/>
<line x1="196" y1="210" x2="214" y2="210" stroke="#1f1f1f" stroke-width="2.3" stroke-linecap="square"/>
<line x1="214" y1="228" x2="214" y2="246" stroke="#1f1f1f" stroke-width="2.3" stroke-linecap="square"/>
<line x1="196" y1="282" x2="196" y2="300" stroke="#1f1f1f" stroke-width="2.3" stroke-linecap="square"/>
<line x1="196" y1="300" x2="214" y2="300" stroke="#1f1f1f" stroke-width="2.3" stroke-linecap="square"/>
<line x1="214" y1="246" x2="232" y2="246" stroke="#1f1f1f" stroke-width="2.3" stroke-linecap="square"/>
<line x1="232" y1="282" x2="232" y2="300" stroke="#1f1f1f" stroke-width="2.3" stroke-linecap="square"/>
<line x1="214" y1="300" x2="232" y2="300" stroke="#1f1f1f" stroke-width="2.3" stroke-linecap="square"/>
<line x1="250" y1="246" x2="250" y2="264" stroke="#1f1f1f" stroke-width="2.3" stroke-linecap="square"/>
<line x1="232" y1="246" x2="250" y2="246" stroke="#1f1f1f" stroke-width="2.3" stroke-linecap="square"/>
<line x1="250" y1="264" x2="250" y2="282" stroke="#1f1f1f" stroke-width="2.3" stroke-linecap="square"/>
<line x1="232" y1="282" x2="250" y2="282" stroke="#1f1f1f" stroke-width="2.3" stroke-linecap="square"/>
<line x1="160" y1="210" x2="160" y2="300" stroke="#817c70" stroke-width="1.6"/>
<line x1="178" y1="210" x2="178" y2="300" stroke="#d7d2c6" stroke-width="0.8"/>
<line x1="196" y1="210" x2="196" y2="300" stroke="#817c70" stroke-width="1.6"/>
<line x1="214" y1="210" x2="214" y2="300" stroke="#d7d2c6" stroke-width="0.8"/>
<line x1="232" y1="210" x2="232" y2="300" stroke="#817c70" stroke-width="1.6"/>
<line x1="250" y1="210" x2="250" y2="300" stroke="#d7d2c6" stroke-width="0.8"/>
<line x1="160" y1="210" x2="250" y2="210" stroke="#817c70" stroke-width="1.6"/>
<line x1="160" y1="228" x2="250" y2="228" stroke="#d7d2c6" stroke-width="0.8"/>
<line x1="160" y1="246" x2="250" y2="246" stroke="#817c70" stroke-width="1.6"/>
<line x1="160" y1="264" x2="250" y2="264" stroke="#d7d2c6" stroke-width="0.8"/>
<line x1="160" y1="282" x2="250" y2="282" stroke="#817c70" stroke-width="1.6"/>
<line x1="160" y1="300" x2="250" y2="300" stroke="#d7d2c6" stroke-width="0.8"/>
</svg>
