<svg xmlns="http://www.w3.org/2000/svg" width="236" height="236" viewBox="0 0 236 236">
<rect width="100%" height="100%" fill="#f8f7f2"/>

<rect x="28" y="28" width="18" height="18" fill="#4f8bd6" stroke="none"/>
<rect x="28" y="46" width="18" height="18" fill="#4f8bd6" stroke="none"/>
<rect x="28" y="64" width="18" height="18" fill="#4f8bd6" stroke="none"/>
<rect x="28" y="82" width="18" height="18" fill="#4f8bd6" stroke="none"/>
<rect x="28" y="100" width="18" height="18" fill="#4f8bd6" stroke="none"/>
<rect x="28" y="118" width="18" height="18" fill="#df5b57" stroke="none"/>
<rect x="28" y="136" width="18" height="18" fill="#df5b57" stroke="none"/>
<rect x="28" y="154" width="18" height="18" fill="#55a868" stroke="none"/>
<rect x="28" y="172" width="18" height="18" fill="#55a868" stroke="none"/>
<rect x="28" y="190" width="18" height="18" fill="#55a868" stroke="none"/>
<rect x="46" y="28" width="18" height="18" fill="#4f8bd6" stroke="none"/>
<rect x="46" y="46" width="18" height="18" fill="#4f8bd6" stroke="none"/>
<rect x="46" y="64" width="18" height="18" fill="#4f8bd6" stroke="none"/>
<rect x="46" y="82" width="18" height="18" fill="#4f8bd6" stroke="none"/>
<rect x="46" y="100" width="18" height="18" fill="#4f8bd6" stroke="none"/>
<rect x="46" y="118" width="18" height="18" fill="#df5b57" stroke="none"/>
<rect x="46" y="136" width="18" height="18" fill="#df5b57" stroke="none"/>
<rect x="46" y="154" width="18" height="18" fill="#55a868" stroke="none"/>
<rect x="46" y="172" width="18" height="18" fill="#55a868" stroke="none"/>
<rect x="46" y="190" width="18" height="18" fill="#55a868" stroke="none"/>
<rect x="64" y="28" width="18" height="18" fill="#4f8bd6" stroke="none"/>
<rect x="64" y="46" width="18" height="18" fill="#4f8bd6" stroke="none"/>
<rect x="64" y="64" width="18" height="18" fill="#4f8bd6" stroke="none"/>
<rect x="64" y="82" width="18" height="18" fill="#4f8bd6" stroke="none"/>
<rect x="64" y="100" width="18" height="18" fill="#df5b57" stroke="none"/>
<rect x="64" y="118" width="18" height="18" fill="#df5b57" stroke="none"/>
<rect x="64" y="136" width="18" height="18" fill="#df5b57" stroke="none"/>
<rect x="64" y="154" width="18" height="18" fill="#df5b57" stroke="none"/>
<rect x="64" y="172" width="18" height="18" fill="#55a868" stroke="none"/>
<rect x="64" y="190" width="18" height="18" fill="#55a868" stroke="none"/>
<rect x="82" y="28" width="18" height="18" fill="#c77cce" stroke="none"/>
<rect x="82" y="46" width="18" height="18" fill="#c77cce" stroke="none"/>
<rect x="82" y="64" width="18" height="18" fill="#4f8bd6" stroke="none"/>
<rect x="82" y="82" width="18" height="18" fill="#4f8bd6" stroke="none"/>
<rect x="82" y="100" width="18" height="18" fill="#df5b57" stroke="none"/>
<rect x="82" y="118" width="18" height="18" fill="#df5b57" stroke="none"/>
<rect x="82" y="136" width="18" height="18" fill="#df5b57" stroke="none"/>
<rect x="82" y="154" width="18" height="18" fill="#df5b57" stroke="none"/>
<rect x="82" y="172" width="18" height="18" fill="#55a868" stroke="none"/>
<rect x="82" y="190" width="18" height="18" fill="#55a868" stroke="none"/>
<rect x="100" y="28" width="18" height="18" fill="#c77cce" stroke="none"/>
<rect x="100" y="46" width="18" height="18" fill="#c77cce" stroke="none"/>
<rect x="100" y="64" width="18" height="18" fill="#c77cce" stroke="none"/>
<rect x="100" y="82" width="18" height="18" fill="#4db6ac" stroke="none"/>
<rect x="100" y="100" width="18" height="18" fill="#4db6ac" stroke="none"/>
<rect x="100" y="118" width="18" height="18" fill="#df5b57" stroke="none"/>
<rect x="100" y="136" width="18" height="18" fill="#df5b57" stroke="none"/>
<rect x="100" y="154" width="18" height="18" fill="#55a868" stroke="none"/>
<rect x="100" y="172" width="18" height="18" fill="#55a868" stroke="none"/>
<rect x="100" y="190" width="18" height="18" fill="#55a868" stroke="none"/>
<rect x="118" y="28" width="18" height="18" fill="#c77cce" stroke="none"/>
<rect x="118" y="46" width="18" height="18" fill="#c77cce" stroke="none"/>
<rect x="118" y="64" width="18" height="18" fill="#c77cce" stroke="none"/>
<rect x="118" y="82" width="18" height="18" fill="#4db6ac" stroke="none"/>
<rect x="118" y="100" width="18" height="18" fill="#4db6ac" stroke="none"/>
<rect x="118" y="118" width="18" height="18" fill="#df5b57" stroke="none"/>
<rect x="118" y="136" width="18" height="18" fill="#df5b57" stroke="none"/>
<rect x="118" y="154" width="18" height="18" fill="#55a868" stroke="none"/>
<rect x="118" y="172" width="18" height="18" fill="#55a868" stroke="none"/>
<rect x="118" y="190" width="18" height="18" fill="#55a868" stroke="none"/>
<rect x="136" y="28" width="18" height="18" fill="#c77cce" stroke="none"/>
<rect x="136" y="46" width="18" height="18" fill="#c77cce" stroke="none"/>
<rect x="136" y="64" width="18" height="18" fill="#4db6ac" stroke="none"/>
<rect x="136" y="82" width="18" height="18" fill="#4db6ac" stroke="none"/>
<rect x="136" y="100" width="18" height="18" fill="#4db6ac" stroke="none"/>
<rect x="136" y="118" width="18" height="18" fill="#4db6ac" stroke="none"/>
<rect x="136" y="136" width="18" height="18" fill="#d79542" stroke="none"/>
<rect x="136" y="154" width="18" height="18" fill="#d79542" stroke="none"/>
<rect x="136" y="172" width="18" height="18" fill="#55a868" stroke="none"/>
<rect x="136" y="190" width="18" height="18" fill="#55a868" stroke="none"/>
<rect x="154" y="28" width="18" height="18" fill="#c77cce" stroke="none"/>
<rect x="154" y="46" width="18" height="18" fill="#c77cce" stroke="none"/>
<rect x="154" y="64" width="18" height="18" fill="#4db6ac" stroke="none"/>
<rect x="154" y="82" width="18" height="18" fill="#4db6ac" stroke="none"/>
<rect x="154" y="100" width="18" height="18" fill="#4db6ac" stroke="none"/>
<rect x="154" y="118" width="18" height="18" fill="#4db6ac" stroke="none"/>
<rect x="154" y="136" width="18" height="18" fill="#d79542" stroke="none"/>
<rect x="154" y="154" width="18" height="18" fill="#d79542" stroke="none"/>
<rect x="154" y="172" width="18" height="18" fill="#d79542" stroke="none"/>
<rect x="154" y="190" width="18" height="18" fill="#d79542" stroke="none"/>
<rect x="172" y="28" width="18" height="18" fill="#c77cce" stroke="none"/>
<rect x="172" y="46" width="18" height="18" fill="#c77cce" stroke="none"/>
<rect x="172" y="64" width="18" height="18" fill="#c77cce" stroke="none"/>
<rect x="172" y="82" width="18" height="18" fill="#4db6ac" stroke="none"/>
<rect x="172" y="100" width="18" height="18" fill="#4db6ac" stroke="none"/>
<rect x="172" y="118" width="18" height="18" fill="#d79542" stroke="none"/>
<rect x="172" y="136" width="18" height="18" fill="#d79542" stroke="none"/>
<rect x="172" y="154" width="18" height="18" fill="#d79542" stroke="none"/>
<rect x="172" y="172" width="18" height="18" fill="#d79542" stroke="none"/>
<rect x="172" y="190" width="18" height="18" fill="#d79542" stroke="none"/>
<rect x="190" y="28" width="18" height="18" fill="#c77cce" stroke="none"/>
<rect x="190" y="46" width="18" height="18" fill="#c77cce" stroke="none"/>
<rect x="190" y="64" width="18" height="18" fill="#c77cce" stroke="none"/>
<rect x="190" y="82" width="18" height="18" fill="#4db6ac" stroke="none"/>
<rect x="190" y="100" width="18" height="18" fill="#4db6ac" stroke="none"/>
<rect x="190" y="118" width="18" height="18" fill="#d79542" stroke="none"/>
<rect x="190" y="136" width="18" height="18" fill="#d79542" stroke="none"/>
<rect x="190" y="154" width="18" height="18" fill="#d79542" stroke="none"/>
<rect x="190" y="172" width="18" height="18" fill="#d79542" stroke="none"/>
<rect x="190" y="190" width="18" height="18" fill="#d79542" stroke="none"/>
<line x1="28" y1="28" x2="28" y2="46" stroke="#1f1f1f" stroke-width="2.3" stroke-linecap="square"/>
<line x1="28" y1="28" x2="46" y2="28" stroke="#1f1f1f" stroke-width="2.3" stroke-linecap="square"/>
<line x1="28" y1="46" x2="28" y2="64" stroke="#1f1f1f" stroke-width="2.3" stroke-linecap="square"/>
<line x1="28" y1="64" x2="28" y2="82" stroke="#1f1f1f" stroke-width="2.3" stroke-linecap="square"/>
<line x1="28" y1="82" x2="28" y2="100" stroke="#1f1f1f" stroke-width="2.3" stroke-linecap="square"/>
<line x1="28" y1="100" x2="28" y2="118" stroke="#1f1f1f" stroke-width="2.3" stroke-linecap="square"/>
<line x1="28" y1="118" x2="46" y2="118" stroke="#1f1f1f" stroke-width="2.3" stroke-linecap="square"/>
<line x1="28" y1="118" x2="28" y2="136" stroke="#1f1f1f" stroke-width="2.3" stroke-linecap="square"/>
<line x1="28" y1="118" x2="46" y2="118" stroke="#1f1f1f" stroke-width="2.3" stroke-linecap="square"/>
<line x1="28" y1="136" x2="28" y2="154" stroke="#1f1f1f" stroke-width="2.3" stroke-linecap="square"/>
<line x1="28" y1="154" x2="46" y2="154" stroke="#1f1f1f" stroke-width="2.3" stroke-linecap="square"/>
<line x1="28" y1="154" x2="28" y2="172" stroke="#1f1f1f" stroke-width="2.3" stroke-linecap="square"/>
<line x1="28" y1="154" x2="46" y2="154" stroke="#1f1f1f" stroke-width="2.3" stroke-linecap="square"/>
<line x1="28" y1="172" x2="28" y2="190" stroke="#1f1f1f" stroke-width="2.3" stroke-linecap="square"/>
<line x1="28" y1="190" x2="28" y2="208" stroke="#1f1f1f" stroke-width="2.3" stroke-linecap="square"/>
<line x1="28" y1="208" x2="46" y2="208" stroke="#1f1f1f" stroke-width="2.3" stroke-linecap="square"/>
<line x1="46" y1="28" x2="64" y2="28" stroke="#1f1f1f" stroke-width="2.3" stroke-linecap="square"/>
<line x1="64" y1="100" x2="64" y2="118" stroke="#1f1f1f" stroke-width="2.3" stroke-linecap="square"/>
<line x1="46" y1="118" x2="64" y2="118" stroke="#1f1f1f" stroke-width="2.3" stroke-linecap="square"/>
<line x1="46" y1="118" x2="64" y2="118" stroke="#1f1f1f" stroke-width="2.3" stroke-linecap="square"/>
<line x1="46" y1="154" x2="64" y2="154" stroke="#1f1f1f" stroke-width="2.3" stroke-linecap="square"/>
<line x1="64" y1="154" x2="64" y2="172" stroke="#1f1f1f" stroke-width="2.3" stroke-linecap="square"/>
<line x1="46" y1="154" x2="64" y2="154" stroke="#1f1f1f" stroke-width="2.3" stroke-linecap="square"/>
<line x1="46" y1="208" x2="64" y2="208" stroke="#1f1f1f" stroke-width="2.3" stroke-linecap="square"/>
<line x1="82" y1="28" x2="82" y2="46" stroke="#1f1f1f" stroke-width="2.3" stroke-linecap="square"/>
<line x1="64" y1="28" x2="82" y2="28" stroke="#1f1f1f" stroke-width="2.3" stroke-linecap="square"/>
<line x1="82" y1="46" x2="82" y2="64" stroke="#1f1f1f" stroke-width="2.3" stroke-linecap="square"/>
<line x1="64" y1="100" x2="82" y2="100" stroke="#1f1f1f" stroke-width="2.3" stroke-linecap="square"/>
<line x1="64" y1="100" x2="64" y2="118" stroke="#1f1f1f" stroke-width="2.3" stroke-linecap="square"/>
<line x1="64" y1="100" x2="82" y2="100" stroke="#1f1f1f" stroke-width="2.3" stroke-linecap="square"/>
<line x1="64" y1="154" x2="64" y2="172" stroke="#1f1f1f" stroke-width="2.3" stroke-linecap="square"/>
<line x1="64" y1="172" x2="82" y2="172" stroke="#1f1f1f" stroke-width="2.3" stroke-linecap="square"/>
<line x1="64" y1="172" x2="82" y2="172" stroke="#1f1f1f" stroke-width="2.3" stroke-linecap="square"/>
<line x1="64" y1="208" x2="82" y2="208" stroke="#1f1f1f" stroke-width="2.3" stroke-linecap="square"/>
<line x1="82" y1="28" x2="82" y2="46" stroke="#1f1f1f" stroke-width="2.3" stroke-linecap="square"/>
<line x1="82" y1="28" x2="100" y2="28" stroke="#1f1f1f" stroke-width="2.3" stroke-linecap="square"/>
<line x1="82" y1="46" x2="82" y2="64" stroke="#1f1f1f" stroke-width="2.3" stroke-linecap="square"/>
<line x1="82" y1="64" x2="100" y2="64" stroke="#1f1f1f" stroke-width="2.3" stroke-linecap="square"/>
<line x1="100" y1="64" x2="100" y2="82" stroke="#1f1f1f" stroke-width="2.3" stroke-linecap="square"/>
<line x1="82" y1="64" x2="100" y2="64" stroke="#1f1f1f" stroke-width="2.3" stroke-linecap="square"/>
<line x1="100" y1="82" x2="100" y2="100" stroke="#1f1f1f" stroke-width="2.3" stroke-linecap="square"/>
<line x1="82" y1="100" x2="100" y2="100" stroke="#1f1f1f" stroke-width="2.3" stroke-linecap="square"/>
<line x1="100" y1="100" x2="100" y2="118" stroke="#1f1f1f" stroke-width="2.3" stroke-linecap="square"/>
<line x1="82" y1="100" x2="100" y2="100" stroke="#1f1f1f" stroke-width="2.3" stroke-linecap="square"/>
<line x1="100" y1="154" x2="100" y2="172" stroke="#1f1f1f" stroke-width="2.3" stroke-linecap="square"/>
<line x1="82" y1="172" x2="100" y2="172" stroke="#1f1f1f" stroke-width="2.3" stroke-linecap="square"/>
<line x1="82" y1="172" x2="100" y2="172" stroke="#1f1f1f" stroke-width="2.3" stroke-linecap="square"/>
<line x1="82" y1="208" x2="100" y2="208" stroke="#1f1f1f" stroke-width="2.3" stroke-linecap="square"/>
<line x1="100" y1="28" x2="118" y2="28" stroke="#1f1f1f" stroke-width="2.3" stroke-linecap="square"/>
<line x1="100" y1="64" x2="100" y2="82" stroke="#1f1f1f" stroke-width="2.3" stroke-linecap="square"/>
<line x1="100" y1="82" x2="118" y2="82" stroke="#1f1f1f" stroke-width="2.3" stroke-linecap="square"/>
<line x1="100" y1="82" x2="100" y2="100" stroke="#1f1f1f" stroke-width="2.3" stroke-linecap="square"/>
<line x1="100" y1="82" x2="118" y2="82" stroke="#1f1f1f" stroke-width="2.3" stroke-linecap="square"/>
<line x1="100" y1="100" x2="100" y2="118" stroke="#1f1f1f" stroke-width="2.3" stroke-linecap="square"/>
<line x1="100" y1="118" x2="118" y2="118" stroke="#1f1f1f" stroke-width="2.3" stroke-linecap="square"/>
<line x1="100" y1="118" x2="118" y2="118" stroke="#1f1f1f" stroke-width="2.3" stroke-linecap="square"/>
<line x1="100" y1="154" x2="118" y2="154" stroke="#1f1f1f" stroke-width="2.3" stroke-linecap="square"/>
<line x1="100" y1="154" x2="100" y2="172" stroke="#1f1f1f" stroke-width="2.3" stroke-linecap="square"/>
<line x1="100" y1="154" x2="118" y2="154" stroke="#1f1f1f" stroke-width="2.3" stroke-linecap="square"/>
<line x1="100" y1="208" x2="118" y2="208" stroke="#1f1f1f" stroke-width="2.3" stroke-linecap="square"/>
<line x1="118" y1="28" x2="136" y2="28" stroke="#1f1f1f" stroke-width="2.3" stroke-linecap="square"/>
<line x1="136" y1="64" x2="136" y2="82" stroke="#1f1f1f" stroke-width="2.3" stroke-linecap="square"/>
<line x1="118" y1="82" x2="136" y2="82" stroke="#1f1f1f" stroke-width="2.3" stroke-linecap="square"/>
<line x1="118" y1="82" x2="136" y2="82" stroke="#1f1f1f" stroke-width="2.3" stroke-linecap="square"/>
<line x1="118" y1="118" x2="136" y2="118" stroke="#1f1f1f" stroke-width="2.3" stroke-linecap="square"/>
<line x1="136" y1="118" x2="136" y2="136" stroke="#1f1f1f" stroke-width="2.3" stroke-linecap="square"/>
<line x1="118" y1="118" x2="136" y2="118" stroke="#1f1f1f" stroke-width="2.3" stroke-linecap="square"/>
<line x1="136" y1="136" x2="136" y2="154" stroke="#1f1f1f" stroke-width="2.3" stroke-linecap="square"/>
<line x1="118" y1="154" x2="136" y2="154" stroke="#1f1f1f" stroke-width="2.3" stroke-linecap="square"/>
<line x1="136" y1="154" x2="136" y2="172" stroke="#1f1f1f" stroke-width="2.3" stroke-linecap="square"/>
<line x1="118" y1="154" x2="136" y2="154" stroke="#1f1f1f" stroke-width="2.3" stroke-linecap="square"/>
<line x1="118" y1="208" x2="136" y2="208" stroke="#1f1f1f" stroke-width="2.3" stroke-linecap="square"/>
<line x1="136" y1="28" x2="154" y2="28" stroke="#1f1f1f" stroke-width="2.3" stroke-linecap="square"/>
<line x1="136" y1="64" x2="154" y2="64" stroke="#1f1f1f" stroke-width="2.3" stroke-linecap="square"/>
<line x1="136" y1="64" x2="136" y2="82" stroke="#1f1f1f" stroke-width="2.3" stroke-linecap="square"/>
<line x1="136" y1="64" x2="154" y2="64" stroke="#1f1f1f" stroke-width="2.3" stroke-linecap="square"/>
<line x1="136" y1="118" x2="136" y2="136" stroke="#1f1f1f" stroke-width="2.3" stroke-linecap="square"/>
<line x1="136" y1="136" x2="154" y2="136" stroke="#1f1f1f" stroke-width="2.3" stroke-linecap="square"/>
<line x1="136" y1="136" x2="136" y2="154" stroke="#1f1f1f" stroke-width="2.3" stroke-linecap="square"/>
<line x1="136" y1="136" x2="154" y2="136" stroke="#1f1f1f" stroke-width="2.3" stroke-linecap="square"/>
<line x1="136" y1="154" x2="136" y2="172" stroke="#1f1f1f" stroke-width="2.3" stroke-linecap="square"/>
<line x1="136" y1="172" x2="154" y2="172" stroke="#1f1f1f" stroke-width="2.3" stroke-linecap="square"/>
<line x1="154" y1="172" x2="154" y2="190" stroke="#1f1f1f" stroke-width="2.3" stroke-linecap="square"/>
<line x1="136" y1="172" x2="154" y2="172" stroke="#1f1f1f" stroke-width="2.3" stroke-linecap="square"/>
<line x1="154" y1="190" x2="154" y2="208" stroke="#1f1f1f" stroke-width="2.3" stroke-linecap="square"/>
<line x1="136" y1="208" x2="154" y2="208" stroke="#1f1f1f" stroke-width="2.3" stroke-linecap="square"/>
<line x1="154" y1="28" x2="172" y2="28" stroke="#1f1f1f" stroke-width="2.3" stroke-linecap="square"/>
<line x1="154" y1="64" x2="172" y2="64" stroke="#1f1f1f" stroke-width="2.3" stroke-linecap="square"/>
<line x1="172" y1="64" x2="172" y2="82" stroke="#1f1f1f" stroke-width="2.3" stroke-linecap="square"/>
<line x1="154" y1="64" x2="172" y2="64" stroke="#1f1f1f" stroke-width="2.3" stroke-linecap="square"/>
<line x1="172" y1="118" x2="172" y2="136" stroke="#1f1f1f" stroke-width="2.3" stroke-linecap="square"/>
<line x1="154" y1="136" x2="172" y2="136" stroke="#1f1f1f" stroke-width="2.3" stroke-linecap="square"/>
<line x1="154" y1="136" x2="172" y2="136" stroke="#1f1f1f" stroke-width="2.3" stroke-linecap="square"/>
<line x1="154" y1="172" x2="154" y2="190" stroke="#1f1f1f" stroke-width="2.3" stroke-linecap="square"/>
<line x1="154" y1="190" x2="154" y2="208" stroke="#1f1f1f" stroke-width="2.3" stroke-linecap="square"/>
<line x1="154" y1="208" x2="172" y2="208" stroke="#1f1f1f" stroke-width="2.3" stroke-linecap="square"/>
<line x1="172" y1="28" x2="190" y2="28" stroke="#1f1f1f" stroke-width="2.3" stroke-linecap="square"/>
<line x1="172" y1="64" x2="172" y2="82" stroke="#1f1f1f" stroke-width="2.3" stroke-linecap="square"/>
<line x1="172" y1="82" x2="190" y2="82" stroke="#1f1f1f" stroke-width="2.3" stroke-linecap="square"/>
<line x1="172" y1="82" x2="190" y2="82" stroke="#1f1f1f" stroke-width="2.3" stroke-linecap="square"/>
<line x1="172" y1="118" x2="190" y2="118" stroke="#1f1f1f" stroke-width="2.3" stroke-linecap="square"/>
<line x1="172" y1="118" x2="172" y2="136" stroke="#1f1f1f" stroke-width="2.3" stroke-linecap="square"/>
<line x1="172" y1="118" x2="190" y2="118" stroke="#1f1f1f" stroke-width="2.3" stroke-linecap="square"/>
<line x1="172" y1="208" x2="190" y2="208" stroke="#1f1f1f" stroke-width="2.3" stroke-linecap="square"/>
<line x1="208" y1="28" x2="208" y2="46" stroke="#1f1f1f" stroke-width="2.3" stroke-linecap="square"/>
<line x1="190" y1="28" x2="208" y2="28" stroke="#1f1f1f" stroke-width="2.3" stroke-linecap="square"/>
<line x1="208" y1="46" x2="208" y2="64" stroke="#1f1f1f" stroke-width="2.3" stroke-linecap="square"/>
<line x1="208" y1="64" x2="208" y2="82" stroke="#1f1f1f" stroke-width="2.3" stroke-linecap="square"/>
<line x1="190" y1="82" x2="208" y2="82" stroke="#1f1f1f" stroke-width="2.3" stroke-linecap="square"/>
<line x1="208" y1="82" x2="208" y2="100" stroke="#1f1f1f" stroke-width="2.3" stroke-linecap="square"/>
<line x1="190" y1="82" x2="208" y2="82" stroke="#1f1f1f" stroke-width="2.3" stroke-linecap="square"/>
<line x1="208" y1="100" x2="208" y2="118" stroke="#1f1f1f" stroke-width="2.3" stroke-linecap="square"/>
<line x1="190" y1="118" x2="208" y2="118" stroke="#1f1f1f" stroke-width="2.3" stroke-linecap="square"/>
<line x1="208" y1="118" x2="208" y2="136" stroke="#1f1f1f" stroke-width="2.3" stroke-linecap="square"/>
<line x1="190" y1="118" x2="208" y2="118" stroke="#1f1f1f" stroke-width="2.3" stroke-linecap="square"/>
<line x1="208" y1="136" x2="208" y2="154" stroke="#1f1f1f" stroke-width="2.3" stroke-linecap="square"/>
<line x1="208" y1="154" x2="208" y2="172" stroke="#1f1f1f" stroke-width="2.3" stroke-linecap="square"/>
<line x1="208" y1="172" x2="208" y2="190" stroke="#1f1f1f" stroke-width="2.3" stroke-linecap="square"/>
<line x1="208" y1="190" x2="208" y2="208" stroke="#1f1f1f" stroke-width="2.3" stroke-linecap="square"/>
<line x1="190" y1="208" x2="208" y2="208" stroke="#1f1f1f" stroke-width="2.3" stroke-linecap="square"/>
<line x1="28" y1="28" x2="28" y2="208" stroke="#817c70" stroke-width="1.6"/>
<line x1="46" y1="28" x2="46" y2="208" stroke="#d7d2c6" stroke-width="0.8"/>
<line x1="64" y1="28" x2="64" y2="208" stroke="#817c70" stroke-width="1.6"/>
<line x1="82" y1="28" x2="82" y2="208" stroke="#d7d2c6" stroke-width="0.8"/>
<line x1="100" y1="28" x2="100" y2="208" stroke="#817c70" stroke-width="1.6"/>
<line x1="118" y1="28" x2="118" y2="208" stroke="#d7d2c6" stroke-width="0.8"/>
<line x1="136" y1="28" x2="136" y2="208" stroke="#817c70" stroke-width="1.6"/>
<line x1="154" y1="28" x2="154" y2="208" stroke="#d7d2c6" stroke-width="0.8"/>
<line x1="172" y1="28" x2="172" y2="208" stroke="#817c70" stroke-width="1.6"/>
<line x1="190" y1="28" x2="190" y2="208" stroke="#d7d2c6" stroke-width="0.8"/>
<line x1="208" y1="28" x2="208" y2="208" stroke="#817c70" stroke-width="1.6"/>
<line x1="28" y1="28" x2="208" y2="28" stroke="#817c70" stroke-width="1.6"/>
<line x1="28" y1="46" x2="208" y2="46" stroke="#d7d2c6" stroke-width="0.8"/>
<line x1="28" y1="64" x2="208" y2="64" stroke="#817c70" stroke-width="1.6"/>
<line x1="28" y1="82" x2="208" y2="82" stroke="#d7d2c6" stroke-width="0.8"/>
<line x1="28" y1="100" x2="208" y2="100" stroke="#817c70" stroke-width="1.6"/>
<line x1="28" y1="118" x2="208" y2="118" stroke="#d7d2c6" stroke-width="0.8"/>
<line x1="28" y1="136" x2="208" y2="136" stroke="#817c70" stroke-width="1.6"/>
<line x1="28" y1="154" x2="208" y2="154" stroke="#d7d2c6" stroke-width="0.8"/>
<line x1="28" y1="172" x2="208" y2="172" stroke="#817c70" stroke-width="1.6"/>
<line x1="28" y1="190" x2="208" y2="190" stroke="#d7d2c6" stroke-width="0.8"/>
<line x1="28" y1="208" x2="208" y2="208" stroke="#817c70" stroke-width="1.6"/>
<text x="58.4" y="71.9" text-anchor="middle" dominant-baseline="central" font-family="Arial, sans-serif" font-size="16" font-weight="700" fill="#202020" paint-order="stroke" stroke="#ffffff" stroke-width="3">B</text>
<text x="89.0" y="184.0" text-anchor="middle" dominant-baseline="central" font-family="Arial, sans-serif" font-size="16" font-weight="700" fill="#202020" paint-order="stroke" stroke="#ffffff" stroke-width="3">C</text>
<text x="147.0" y="52.0" text-anchor="middle" dominant-baseline="central" font-family="Arial, sans-serif" font-size="16" font-weight="700" fill="#202020" paint-order="stroke" stroke="#ffffff" stroke-width="3">D</text>
<text x="177.6" y="164.1" text-anchor="middle" dominant-baseline="central" font-family="Arial, sans-serif" font-size="16" font-weight="700" fill="#202020" paint-order="stroke" stroke="#ffffff" stroke-width="3">E</text>
<text x="82.0" y="136.0" text-anchor="middle" dominant-baseline="central" font-family="Arial, sans-serif" font-size="16" font-weight="700" fill="#202020" paint-order="stroke" stroke="#ffffff" stroke-width="3">A</text>
<text x="154.0" y="100.0" text-anchor="middle" dominant-baseline="central" font-family="Arial, sans-serif" font-size="16" font-weight="700" fill="#202020" paint-order="stroke" stroke="#ffffff" stroke-width="3">F</text>
</svg>
